G04 #@! TF.FileFunction,Copper,L2,Bot,Signal*
%FSLAX46Y46*%
G04 Gerber Fmt 4.6, Leading zero omitted, Abs format (unit mm)*
G04 Created by KiCad (PCBNEW 4.0.4-stable) date 10/08/16 21:13:50*
%MOMM*%
%LPD*%
G01*
G04 APERTURE LIST*
%ADD10C,0.152400*%
%ADD11R,1.250000X1.500000*%
%ADD12R,1.500000X1.250000*%
%ADD13C,1.998980*%
%ADD14R,1.998980X1.998980*%
%ADD15R,3.500120X3.500120*%
%ADD16R,2.032000X1.727200*%
%ADD17O,2.032000X1.727200*%
%ADD18R,2.032000X2.032000*%
%ADD19O,2.032000X2.032000*%
%ADD20R,2.235200X2.235200*%
%ADD21R,1.700000X2.000000*%
%ADD22R,2.000000X1.700000*%
%ADD23O,1.600000X1.600000*%
%ADD24R,2.032000X3.657600*%
%ADD25R,2.032000X1.016000*%
%ADD26C,1.500000*%
%ADD27C,0.254000*%
%ADD28C,0.127000*%
G04 APERTURE END LIST*
D10*
D11*
X135128000Y-82062000D03*
X135128000Y-84562000D03*
X135128000Y-104414000D03*
X135128000Y-106914000D03*
D12*
X136251000Y-100584000D03*
X133751000Y-100584000D03*
X136505000Y-75438000D03*
X134005000Y-75438000D03*
X121686000Y-110744000D03*
X124186000Y-110744000D03*
X134005000Y-78740000D03*
X136505000Y-78740000D03*
D13*
X148336000Y-79250540D03*
D14*
X158496000Y-79250540D03*
D15*
X155575000Y-75415140D03*
X155575000Y-69415660D03*
X150876000Y-72415400D03*
D16*
X147320000Y-91948000D03*
D17*
X147320000Y-94488000D03*
X147320000Y-97028000D03*
D16*
X147320000Y-100584000D03*
D17*
X147320000Y-103124000D03*
X147320000Y-105664000D03*
D16*
X147320000Y-83312000D03*
D17*
X147320000Y-85852000D03*
X147320000Y-88392000D03*
D18*
X113284000Y-84582000D03*
D19*
X113284000Y-87122000D03*
D18*
X113284000Y-90424000D03*
D19*
X113284000Y-92964000D03*
D20*
X157480000Y-90424000D03*
D18*
X157480000Y-86868000D03*
D19*
X157480000Y-84328000D03*
D21*
X123698000Y-70580000D03*
X123698000Y-66580000D03*
X123698000Y-78708000D03*
X123698000Y-74708000D03*
D22*
X117316000Y-109474000D03*
X113316000Y-109474000D03*
D20*
X130810000Y-68580000D03*
X135890000Y-68580000D03*
X140716000Y-68580000D03*
X157480000Y-93980000D03*
D23*
X131572000Y-103632000D03*
X131572000Y-106172000D03*
X131572000Y-108712000D03*
X131572000Y-111252000D03*
X139192000Y-111252000D03*
X139192000Y-108712000D03*
X139192000Y-106172000D03*
X139192000Y-103632000D03*
X131572000Y-81788000D03*
X131572000Y-84328000D03*
X131572000Y-86868000D03*
X131572000Y-89408000D03*
X139192000Y-89408000D03*
X139192000Y-86868000D03*
X139192000Y-84328000D03*
X139192000Y-81788000D03*
D16*
X127762000Y-111760000D03*
D17*
X127762000Y-109220000D03*
X127762000Y-106680000D03*
X127762000Y-104140000D03*
X127762000Y-101600000D03*
X127762000Y-99060000D03*
X127762000Y-96520000D03*
X127762000Y-93980000D03*
X127762000Y-91440000D03*
X127762000Y-88900000D03*
X127762000Y-86360000D03*
X127762000Y-83820000D03*
X127762000Y-81280000D03*
X127762000Y-78740000D03*
X127762000Y-76200000D03*
D16*
X143002000Y-111760000D03*
D17*
X143002000Y-109220000D03*
X143002000Y-106680000D03*
X143002000Y-104140000D03*
X143002000Y-101600000D03*
X143002000Y-99060000D03*
X143002000Y-96520000D03*
X143002000Y-93980000D03*
X143002000Y-91440000D03*
X143002000Y-88900000D03*
X143002000Y-86360000D03*
X143002000Y-83820000D03*
X143002000Y-81280000D03*
X143002000Y-78740000D03*
X143002000Y-76200000D03*
D24*
X120396000Y-68834000D03*
D25*
X113792000Y-68834000D03*
X113792000Y-66548000D03*
X113792000Y-71120000D03*
D24*
X120142000Y-76962000D03*
D25*
X113538000Y-76962000D03*
X113538000Y-74676000D03*
X113538000Y-79248000D03*
D24*
X120142000Y-103124000D03*
D25*
X113538000Y-103124000D03*
X113538000Y-100838000D03*
X113538000Y-105410000D03*
D26*
X114236000Y-98846000D03*
X120236000Y-98846000D03*
X154980000Y-110808000D03*
X154980000Y-104808000D03*
D27*
X132588000Y-72390000D02*
X150850600Y-72390000D01*
X150850600Y-72390000D02*
X150876000Y-72415400D01*
X130810000Y-68580000D02*
X130810000Y-70612000D01*
X130810000Y-70612000D02*
X132588000Y-72390000D01*
X132588000Y-72390000D02*
X132613400Y-72415400D01*
X141732000Y-107950000D02*
X155702000Y-107950000D01*
X141224000Y-108458000D02*
X141732000Y-107950000D01*
X141224000Y-111252000D02*
X141224000Y-108458000D01*
X159766000Y-84582000D02*
X151003000Y-75819000D01*
X159766000Y-97917000D02*
X159766000Y-84582000D01*
X156845000Y-100838000D02*
X159766000Y-97917000D01*
X156845000Y-106807000D02*
X156845000Y-100838000D01*
X151003000Y-75819000D02*
X151003000Y-72542400D01*
X155702000Y-107950000D02*
X156845000Y-106807000D01*
X151003000Y-72542400D02*
X150876000Y-72415400D01*
X142875000Y-111760000D02*
X141732000Y-111760000D01*
X141732000Y-111760000D02*
X141224000Y-111252000D01*
X136461500Y-105747500D02*
X135128000Y-104414000D01*
X131572000Y-81788000D02*
X134854000Y-81788000D01*
X134854000Y-81788000D02*
X135128000Y-82062000D01*
X135128000Y-104414000D02*
X132354000Y-104414000D01*
X132354000Y-104414000D02*
X131572000Y-103632000D01*
X136461500Y-109283500D02*
X136461500Y-105747500D01*
X137287000Y-110109000D02*
X136461500Y-109283500D01*
X142875000Y-104140000D02*
X142303500Y-104140000D01*
X142303500Y-104140000D02*
X140462000Y-105981500D01*
X140462000Y-105981500D02*
X140462000Y-109601000D01*
X140462000Y-109601000D02*
X139954000Y-110109000D01*
X139954000Y-110109000D02*
X137287000Y-110109000D01*
D28*
X147320000Y-100584000D02*
X149098000Y-100584000D01*
D10*
X154686000Y-89662000D02*
X157480000Y-86868000D01*
X154686000Y-94996000D02*
X154686000Y-89662000D01*
X149098000Y-100584000D02*
X154686000Y-94996000D01*
D28*
X147320000Y-94488000D02*
X146050000Y-94488000D01*
D10*
X146050000Y-94488000D02*
X144780000Y-93218000D01*
X144780000Y-93218000D02*
X144780000Y-90805000D01*
X144780000Y-90805000D02*
X142875000Y-88900000D01*
D28*
X127762000Y-81280000D02*
X127000000Y-81280000D01*
X127000000Y-81280000D02*
X126746000Y-81534000D01*
D10*
X126746000Y-81534000D02*
X116586000Y-91694000D01*
X111506000Y-81280000D02*
X113538000Y-79248000D01*
X111506000Y-91186000D02*
X111506000Y-81280000D01*
X112014000Y-91694000D02*
X111506000Y-91186000D01*
D28*
X116586000Y-91694000D02*
X112014000Y-91694000D01*
X127762000Y-78740000D02*
X127762000Y-78232000D01*
D10*
X127762000Y-78232000D02*
X130048000Y-75946000D01*
X130048000Y-75946000D02*
X130048000Y-73914000D01*
X130048000Y-73914000D02*
X128778000Y-72644000D01*
X128778000Y-72644000D02*
X115316000Y-72644000D01*
X115316000Y-72644000D02*
X113792000Y-71120000D01*
D28*
X125222000Y-101600000D02*
X127635000Y-101600000D01*
X119253000Y-107569000D02*
X125222000Y-101600000D01*
X119253000Y-111887000D02*
X119253000Y-107569000D01*
X120650000Y-113284000D02*
X119253000Y-111887000D01*
X130683000Y-113284000D02*
X120650000Y-113284000D01*
X131572000Y-112395000D02*
X130683000Y-113284000D01*
X131572000Y-111252000D02*
X131572000Y-112395000D01*
D10*
X127635000Y-99060000D02*
X138176000Y-99060000D01*
D28*
X140716000Y-101600000D02*
X140716000Y-85852000D01*
X140716000Y-85852000D02*
X139192000Y-84328000D01*
X140716000Y-104648000D02*
X139192000Y-106172000D01*
X140716000Y-101600000D02*
X140716000Y-104648000D01*
X138176000Y-99060000D02*
X140716000Y-101600000D01*
X127762000Y-83820000D02*
X127508000Y-83820000D01*
D10*
X127508000Y-83820000D02*
X116586000Y-94742000D01*
X116586000Y-94742000D02*
X116586000Y-102362000D01*
X116586000Y-102362000D02*
X113538000Y-105410000D01*
D27*
X113792000Y-66548000D02*
X113792000Y-66167000D01*
X113792000Y-66167000D02*
X114808000Y-65151000D01*
X128524000Y-69957000D02*
X134005000Y-75438000D01*
X128524000Y-68580000D02*
X128524000Y-69957000D01*
X125095000Y-65151000D02*
X128524000Y-68580000D01*
X114808000Y-65151000D02*
X125095000Y-65151000D01*
X113792000Y-66548000D02*
X112522000Y-66548000D01*
X111760000Y-72898000D02*
X113538000Y-74676000D01*
X111760000Y-67310000D02*
X111760000Y-72898000D01*
X112522000Y-66548000D02*
X111760000Y-67310000D01*
X125730000Y-84328000D02*
X125730000Y-83312000D01*
X116078000Y-93980000D02*
X125730000Y-84328000D01*
X116078000Y-99441000D02*
X116078000Y-93980000D01*
X114681000Y-100838000D02*
X116078000Y-99441000D01*
X129286000Y-82550000D02*
X130048000Y-83312000D01*
X126492000Y-82550000D02*
X129286000Y-82550000D01*
X125730000Y-83312000D02*
X126492000Y-82550000D01*
X113538000Y-100838000D02*
X114681000Y-100838000D01*
X121158000Y-107950000D02*
X123190000Y-107950000D01*
X124186000Y-111145000D02*
X123190000Y-112141000D01*
X123190000Y-112141000D02*
X120523000Y-112141000D01*
X120523000Y-112141000D02*
X119888000Y-111506000D01*
X119888000Y-109220000D02*
X121158000Y-107950000D01*
X119888000Y-111506000D02*
X119888000Y-109220000D01*
X125984000Y-105918000D02*
X127762000Y-104140000D01*
X125984000Y-106680000D02*
X125984000Y-105918000D01*
X125476000Y-107188000D02*
X125984000Y-106680000D01*
X123952000Y-107188000D02*
X125476000Y-107188000D01*
X123190000Y-107950000D02*
X123952000Y-107188000D01*
X131191000Y-100584000D02*
X127635000Y-104140000D01*
X143187000Y-108908000D02*
X142875000Y-109220000D01*
X131191000Y-100584000D02*
X128905000Y-100584000D01*
X128905000Y-100584000D02*
X128651000Y-100330000D01*
X134005000Y-75438000D02*
X131699000Y-75438000D01*
X129921000Y-83185000D02*
X129921000Y-77216000D01*
X129921000Y-77216000D02*
X131699000Y-75438000D01*
X130048000Y-83312000D02*
X129921000Y-83185000D01*
X129921000Y-85979000D02*
X131572000Y-84328000D01*
X129921000Y-94615000D02*
X129921000Y-85979000D01*
X129286000Y-95250000D02*
X129921000Y-94615000D01*
X126111000Y-95250000D02*
X129286000Y-95250000D01*
X124968000Y-96393000D02*
X126111000Y-95250000D01*
X124968000Y-99441000D02*
X124968000Y-96393000D01*
X125857000Y-100330000D02*
X124968000Y-99441000D01*
X128651000Y-100330000D02*
X125857000Y-100330000D01*
X133751000Y-100584000D02*
X131191000Y-100584000D01*
X131572000Y-84328000D02*
X131064000Y-84328000D01*
X131064000Y-84328000D02*
X130048000Y-83312000D01*
X134005000Y-75438000D02*
X134005000Y-76240000D01*
X134005000Y-76240000D02*
X136505000Y-78740000D01*
X135128000Y-84562000D02*
X131806000Y-84562000D01*
X131806000Y-84562000D02*
X131572000Y-84328000D01*
X124186000Y-110744000D02*
X124186000Y-111145000D01*
X124186000Y-110744000D02*
X125984000Y-110744000D01*
X129921000Y-107823000D02*
X131572000Y-106172000D01*
X129921000Y-109347000D02*
X129921000Y-107823000D01*
X128778000Y-110490000D02*
X129921000Y-109347000D01*
X126238000Y-110490000D02*
X128778000Y-110490000D01*
X125984000Y-110744000D02*
X126238000Y-110490000D01*
X135128000Y-106914000D02*
X132314000Y-106914000D01*
X132314000Y-106914000D02*
X131572000Y-106172000D01*
D28*
X139192000Y-108712000D02*
X137414000Y-108712000D01*
X138430000Y-100584000D02*
X136251000Y-100584000D01*
X140335000Y-102489000D02*
X138430000Y-100584000D01*
X140335000Y-104140000D02*
X140335000Y-102489000D01*
X139700000Y-104775000D02*
X140335000Y-104140000D01*
X138811000Y-104775000D02*
X139700000Y-104775000D01*
X137160000Y-106426000D02*
X138811000Y-104775000D01*
X137160000Y-108458000D02*
X137160000Y-106426000D01*
X137414000Y-108712000D02*
X137160000Y-108458000D01*
D10*
X139192000Y-86868000D02*
X138049000Y-86868000D01*
X140716000Y-79649000D02*
X136505000Y-75438000D01*
X140716000Y-82296000D02*
X140716000Y-79649000D01*
X140081000Y-82931000D02*
X140716000Y-82296000D01*
X138811000Y-82931000D02*
X140081000Y-82931000D01*
X137414000Y-84328000D02*
X138811000Y-82931000D01*
X137414000Y-86233000D02*
X137414000Y-84328000D01*
X138049000Y-86868000D02*
X137414000Y-86233000D01*
X130302000Y-105219500D02*
X130302000Y-102997000D01*
X137668000Y-102108000D02*
X139192000Y-103632000D01*
X131191000Y-102108000D02*
X137668000Y-102108000D01*
X130302000Y-102997000D02*
X131191000Y-102108000D01*
D28*
X121686000Y-110744000D02*
X121686000Y-110216000D01*
D10*
X121686000Y-110216000D02*
X123952000Y-107950000D01*
X123952000Y-107950000D02*
X128778000Y-107950000D01*
X128778000Y-107950000D02*
X130302000Y-106426000D01*
D28*
X130302000Y-106426000D02*
X130302000Y-105219500D01*
D10*
X139192000Y-81788000D02*
X137795000Y-81788000D01*
X135529000Y-80264000D02*
X134005000Y-78740000D01*
X136271000Y-80264000D02*
X135529000Y-80264000D01*
X137795000Y-81788000D02*
X136271000Y-80264000D01*
X113284000Y-87122000D02*
X116840000Y-87122000D01*
D28*
X127222000Y-70580000D02*
X123698000Y-70580000D01*
D10*
X130556000Y-73914000D02*
X127222000Y-70580000D01*
X130556000Y-75946000D02*
X130556000Y-73914000D01*
X129286000Y-77216000D02*
X130556000Y-75946000D01*
X129286000Y-78994000D02*
X129286000Y-77216000D01*
X128270000Y-80010000D02*
X129286000Y-78994000D01*
X127000000Y-80010000D02*
X128270000Y-80010000D01*
X125730000Y-78740000D02*
X127000000Y-80010000D01*
X125730000Y-77978000D02*
X125730000Y-78740000D01*
X124460000Y-76708000D02*
X125730000Y-77978000D01*
X122682000Y-76708000D02*
X124460000Y-76708000D01*
D28*
X122174000Y-77216000D02*
X122682000Y-76708000D01*
D10*
X122174000Y-81788000D02*
X122174000Y-77216000D01*
X116840000Y-87122000D02*
X122174000Y-81788000D01*
X123698000Y-78708000D02*
X123698000Y-83566000D01*
D28*
X116840000Y-90424000D02*
X113284000Y-90424000D01*
D10*
X123698000Y-83566000D02*
X116840000Y-90424000D01*
D28*
X117316000Y-109474000D02*
X117316000Y-110268000D01*
D10*
X117316000Y-110268000D02*
X115570000Y-112014000D01*
X115570000Y-112014000D02*
X113538000Y-112014000D01*
X113538000Y-112014000D02*
X111760000Y-110236000D01*
X111760000Y-110236000D02*
X111760000Y-94488000D01*
X111760000Y-94488000D02*
X113284000Y-92964000D01*
D28*
X123698000Y-66580000D02*
X122714000Y-66580000D01*
D10*
X116840000Y-65786000D02*
X113792000Y-68834000D01*
D28*
X121920000Y-65786000D02*
X116840000Y-65786000D01*
X122714000Y-66580000D02*
X121920000Y-65786000D01*
X123698000Y-74708000D02*
X122714000Y-74708000D01*
D10*
X116332000Y-74168000D02*
X113538000Y-76962000D01*
X122174000Y-74168000D02*
X116332000Y-74168000D01*
X122714000Y-74708000D02*
X122174000Y-74168000D01*
D28*
X113316000Y-109474000D02*
X113316000Y-108744000D01*
X113316000Y-108744000D02*
X112268000Y-107696000D01*
X112268000Y-107696000D02*
X112268000Y-103886000D01*
X112268000Y-103886000D02*
X113030000Y-103124000D01*
D27*
G36*
X159766286Y-66727892D02*
X159825962Y-77708312D01*
X159747380Y-77654619D01*
X159495490Y-77603610D01*
X157794047Y-77603610D01*
X157921491Y-77417090D01*
X157972500Y-77165200D01*
X157972500Y-73665080D01*
X157928222Y-73429763D01*
X157789150Y-73213639D01*
X157576950Y-73068649D01*
X157325060Y-73017640D01*
X153824940Y-73017640D01*
X153589623Y-73061918D01*
X153373499Y-73200990D01*
X153261060Y-73365550D01*
X153261060Y-72701150D01*
X153102310Y-72542400D01*
X151003000Y-72542400D01*
X151003000Y-74641710D01*
X151161750Y-74800460D01*
X152752370Y-74800460D01*
X152985759Y-74703787D01*
X153164387Y-74525158D01*
X153177500Y-74493500D01*
X153177500Y-77165200D01*
X153221778Y-77400517D01*
X153360850Y-77616641D01*
X153573050Y-77761631D01*
X153824940Y-77812640D01*
X157027523Y-77812640D01*
X156900079Y-77999160D01*
X156849070Y-78251050D01*
X156849070Y-80250030D01*
X156893348Y-80485347D01*
X157032420Y-80701471D01*
X157244620Y-80846461D01*
X157496510Y-80897470D01*
X159495490Y-80897470D01*
X159730807Y-80853192D01*
X159842663Y-80781215D01*
X159970000Y-104211254D01*
X159970000Y-113282110D01*
X144422911Y-113116715D01*
X144556327Y-112983298D01*
X144653000Y-112749909D01*
X144653000Y-112045750D01*
X144494250Y-111887000D01*
X143129000Y-111887000D01*
X143129000Y-111907000D01*
X142875000Y-111907000D01*
X142875000Y-111887000D01*
X141509750Y-111887000D01*
X141351000Y-112045750D01*
X141351000Y-112749909D01*
X141447673Y-112983298D01*
X141550532Y-113086158D01*
X136272351Y-113030007D01*
X136271000Y-113030000D01*
X131924828Y-113030000D01*
X132065914Y-112888914D01*
X132217330Y-112662305D01*
X132247156Y-112512357D01*
X132614811Y-112266698D01*
X132925880Y-111801151D01*
X133035113Y-111252000D01*
X132925880Y-110702849D01*
X132614811Y-110237302D01*
X132232725Y-109982000D01*
X132614811Y-109726698D01*
X132925880Y-109261151D01*
X133035113Y-108712000D01*
X132925880Y-108162849D01*
X132614811Y-107697302D01*
X132582930Y-107676000D01*
X133857818Y-107676000D01*
X133899838Y-107899317D01*
X134038910Y-108115441D01*
X134251110Y-108260431D01*
X134503000Y-108311440D01*
X135699500Y-108311440D01*
X135699500Y-109283500D01*
X135757504Y-109575105D01*
X135819280Y-109667559D01*
X135922685Y-109822315D01*
X136748184Y-110647815D01*
X136931183Y-110770091D01*
X136995395Y-110812996D01*
X137287000Y-110871000D01*
X137804673Y-110871000D01*
X137728887Y-111252000D01*
X137838120Y-111801151D01*
X138149189Y-112266698D01*
X138614736Y-112577767D01*
X139163887Y-112687000D01*
X139220113Y-112687000D01*
X139769264Y-112577767D01*
X140234811Y-112266698D01*
X140545880Y-111801151D01*
X140655113Y-111252000D01*
X140545880Y-110702849D01*
X140502582Y-110638048D01*
X141000815Y-110139816D01*
X141165996Y-109892605D01*
X141171067Y-109867110D01*
X141224000Y-109601000D01*
X141224000Y-106297130D01*
X141469196Y-106051934D01*
X141432729Y-106106511D01*
X141318655Y-106680000D01*
X141432729Y-107253489D01*
X141757585Y-107739670D01*
X142072366Y-107950000D01*
X141757585Y-108160330D01*
X141432729Y-108646511D01*
X141318655Y-109220000D01*
X141432729Y-109793489D01*
X141757585Y-110279670D01*
X141779780Y-110294500D01*
X141626301Y-110358073D01*
X141447673Y-110536702D01*
X141351000Y-110770091D01*
X141351000Y-111474250D01*
X141509750Y-111633000D01*
X142875000Y-111633000D01*
X142875000Y-111613000D01*
X143129000Y-111613000D01*
X143129000Y-111633000D01*
X144494250Y-111633000D01*
X144653000Y-111474250D01*
X144653000Y-111082285D01*
X153594760Y-111082285D01*
X153805169Y-111591515D01*
X154194436Y-111981461D01*
X154703298Y-112192759D01*
X155254285Y-112193240D01*
X155763515Y-111982831D01*
X156153461Y-111593564D01*
X156364759Y-111084702D01*
X156365240Y-110533715D01*
X156154831Y-110024485D01*
X155765564Y-109634539D01*
X155256702Y-109423241D01*
X154705715Y-109422760D01*
X154196485Y-109633169D01*
X153806539Y-110022436D01*
X153595241Y-110531298D01*
X153594760Y-111082285D01*
X144653000Y-111082285D01*
X144653000Y-110770091D01*
X144556327Y-110536702D01*
X144377699Y-110358073D01*
X144224220Y-110294500D01*
X144246415Y-110279670D01*
X144571271Y-109793489D01*
X144685345Y-109220000D01*
X144571271Y-108646511D01*
X144246415Y-108160330D01*
X143931634Y-107950000D01*
X144246415Y-107739670D01*
X144571271Y-107253489D01*
X144685345Y-106680000D01*
X144571271Y-106106511D01*
X144246415Y-105620330D01*
X143931634Y-105410000D01*
X144246415Y-105199670D01*
X144571271Y-104713489D01*
X144685345Y-104140000D01*
X144571271Y-103566511D01*
X144275595Y-103124000D01*
X145636655Y-103124000D01*
X145750729Y-103697489D01*
X146075585Y-104183670D01*
X146390366Y-104394000D01*
X146075585Y-104604330D01*
X145750729Y-105090511D01*
X145636655Y-105664000D01*
X145750729Y-106237489D01*
X146075585Y-106723670D01*
X146561766Y-107048526D01*
X147135255Y-107162600D01*
X147504745Y-107162600D01*
X148078234Y-107048526D01*
X148564415Y-106723670D01*
X148889271Y-106237489D01*
X149003345Y-105664000D01*
X148889271Y-105090511D01*
X148883775Y-105082285D01*
X153594760Y-105082285D01*
X153805169Y-105591515D01*
X154194436Y-105981461D01*
X154703298Y-106192759D01*
X155254285Y-106193240D01*
X155763515Y-105982831D01*
X156153461Y-105593564D01*
X156364759Y-105084702D01*
X156365240Y-104533715D01*
X156154831Y-104024485D01*
X155765564Y-103634539D01*
X155256702Y-103423241D01*
X154705715Y-103422760D01*
X154196485Y-103633169D01*
X153806539Y-104022436D01*
X153595241Y-104531298D01*
X153594760Y-105082285D01*
X148883775Y-105082285D01*
X148564415Y-104604330D01*
X148249634Y-104394000D01*
X148564415Y-104183670D01*
X148889271Y-103697489D01*
X149003345Y-103124000D01*
X148889271Y-102550511D01*
X148564415Y-102064330D01*
X148550087Y-102054757D01*
X148571317Y-102050762D01*
X148787441Y-101911690D01*
X148932431Y-101699490D01*
X148983440Y-101447600D01*
X148983440Y-101282500D01*
X149098000Y-101282500D01*
X149365305Y-101229330D01*
X149591914Y-101077914D01*
X155179914Y-95489914D01*
X155255361Y-95377000D01*
X155331330Y-95263304D01*
X155384500Y-94996000D01*
X155384500Y-92862400D01*
X155714960Y-92862400D01*
X155714960Y-95097600D01*
X155759238Y-95332917D01*
X155898310Y-95549041D01*
X156110510Y-95694031D01*
X156362400Y-95745040D01*
X158597600Y-95745040D01*
X158832917Y-95700762D01*
X159049041Y-95561690D01*
X159194031Y-95349490D01*
X159245040Y-95097600D01*
X159245040Y-92862400D01*
X159200762Y-92627083D01*
X159061690Y-92410959D01*
X158849490Y-92265969D01*
X158597600Y-92214960D01*
X156362400Y-92214960D01*
X156127083Y-92259238D01*
X155910959Y-92398310D01*
X155765969Y-92610510D01*
X155714960Y-92862400D01*
X155384500Y-92862400D01*
X155384500Y-89951328D01*
X155714960Y-89620868D01*
X155714960Y-91541600D01*
X155759238Y-91776917D01*
X155898310Y-91993041D01*
X156110510Y-92138031D01*
X156362400Y-92189040D01*
X158597600Y-92189040D01*
X158832917Y-92144762D01*
X159049041Y-92005690D01*
X159194031Y-91793490D01*
X159245040Y-91541600D01*
X159245040Y-89306400D01*
X159200762Y-89071083D01*
X159061690Y-88854959D01*
X158849490Y-88709969D01*
X158597600Y-88658960D01*
X156676868Y-88658960D01*
X156804388Y-88531440D01*
X158496000Y-88531440D01*
X158731317Y-88487162D01*
X158947441Y-88348090D01*
X159092431Y-88135890D01*
X159143440Y-87884000D01*
X159143440Y-85852000D01*
X159099162Y-85616683D01*
X158960090Y-85400559D01*
X158811163Y-85298802D01*
X159037670Y-84959810D01*
X159163345Y-84328000D01*
X159037670Y-83696190D01*
X158679778Y-83160567D01*
X158144155Y-82802675D01*
X157512345Y-82677000D01*
X157447655Y-82677000D01*
X156815845Y-82802675D01*
X156280222Y-83160567D01*
X155922330Y-83696190D01*
X155796655Y-84328000D01*
X155922330Y-84959810D01*
X156149499Y-85299792D01*
X156012559Y-85387910D01*
X155867569Y-85600110D01*
X155816560Y-85852000D01*
X155816560Y-87543612D01*
X154192086Y-89168086D01*
X154040670Y-89394695D01*
X154029337Y-89451670D01*
X153987500Y-89662000D01*
X153987500Y-94706672D01*
X148981909Y-99712263D01*
X148939162Y-99485083D01*
X148800090Y-99268959D01*
X148587890Y-99123969D01*
X148336000Y-99072960D01*
X146304000Y-99072960D01*
X146068683Y-99117238D01*
X145852559Y-99256310D01*
X145707569Y-99468510D01*
X145656560Y-99720400D01*
X145656560Y-101447600D01*
X145700838Y-101682917D01*
X145839910Y-101899041D01*
X146052110Y-102044031D01*
X146093439Y-102052400D01*
X146075585Y-102064330D01*
X145750729Y-102550511D01*
X145636655Y-103124000D01*
X144275595Y-103124000D01*
X144246415Y-103080330D01*
X143931634Y-102870000D01*
X144246415Y-102659670D01*
X144571271Y-102173489D01*
X144685345Y-101600000D01*
X144571271Y-101026511D01*
X144246415Y-100540330D01*
X143931634Y-100330000D01*
X144246415Y-100119670D01*
X144571271Y-99633489D01*
X144685345Y-99060000D01*
X144571271Y-98486511D01*
X144246415Y-98000330D01*
X143931634Y-97790000D01*
X144246415Y-97579670D01*
X144571271Y-97093489D01*
X144685345Y-96520000D01*
X144571271Y-95946511D01*
X144246415Y-95460330D01*
X143931634Y-95250000D01*
X144246415Y-95039670D01*
X144571271Y-94553489D01*
X144663582Y-94089410D01*
X145556086Y-94981914D01*
X145782695Y-95133330D01*
X145801190Y-95137009D01*
X146075585Y-95547670D01*
X146390366Y-95758000D01*
X146075585Y-95968330D01*
X145750729Y-96454511D01*
X145636655Y-97028000D01*
X145750729Y-97601489D01*
X146075585Y-98087670D01*
X146561766Y-98412526D01*
X147135255Y-98526600D01*
X147504745Y-98526600D01*
X148078234Y-98412526D01*
X148564415Y-98087670D01*
X148889271Y-97601489D01*
X149003345Y-97028000D01*
X148889271Y-96454511D01*
X148564415Y-95968330D01*
X148249634Y-95758000D01*
X148564415Y-95547670D01*
X148889271Y-95061489D01*
X149003345Y-94488000D01*
X148889271Y-93914511D01*
X148564415Y-93428330D01*
X148550087Y-93418757D01*
X148571317Y-93414762D01*
X148787441Y-93275690D01*
X148932431Y-93063490D01*
X148983440Y-92811600D01*
X148983440Y-91084400D01*
X148939162Y-90849083D01*
X148800090Y-90632959D01*
X148587890Y-90487969D01*
X148336000Y-90436960D01*
X146304000Y-90436960D01*
X146068683Y-90481238D01*
X145852559Y-90620310D01*
X145707569Y-90832510D01*
X145656560Y-91084400D01*
X145656560Y-92811600D01*
X145700838Y-93046917D01*
X145839910Y-93263041D01*
X146052110Y-93408031D01*
X146093439Y-93416400D01*
X146075585Y-93428330D01*
X146036561Y-93486733D01*
X145478500Y-92928672D01*
X145478500Y-90805000D01*
X145455885Y-90691305D01*
X145425330Y-90537695D01*
X145273914Y-90311086D01*
X144517216Y-89554388D01*
X144571271Y-89473489D01*
X144685345Y-88900000D01*
X144571271Y-88326511D01*
X144246415Y-87840330D01*
X143931634Y-87630000D01*
X144246415Y-87419670D01*
X144571271Y-86933489D01*
X144685345Y-86360000D01*
X144584298Y-85852000D01*
X145636655Y-85852000D01*
X145750729Y-86425489D01*
X146075585Y-86911670D01*
X146390366Y-87122000D01*
X146075585Y-87332330D01*
X145750729Y-87818511D01*
X145636655Y-88392000D01*
X145750729Y-88965489D01*
X146075585Y-89451670D01*
X146561766Y-89776526D01*
X147135255Y-89890600D01*
X147504745Y-89890600D01*
X148078234Y-89776526D01*
X148564415Y-89451670D01*
X148889271Y-88965489D01*
X149003345Y-88392000D01*
X148889271Y-87818511D01*
X148564415Y-87332330D01*
X148249634Y-87122000D01*
X148564415Y-86911670D01*
X148889271Y-86425489D01*
X149003345Y-85852000D01*
X148889271Y-85278511D01*
X148564415Y-84792330D01*
X148550087Y-84782757D01*
X148571317Y-84778762D01*
X148787441Y-84639690D01*
X148932431Y-84427490D01*
X148983440Y-84175600D01*
X148983440Y-82448400D01*
X148939162Y-82213083D01*
X148800090Y-81996959D01*
X148587890Y-81851969D01*
X148336000Y-81800960D01*
X146304000Y-81800960D01*
X146068683Y-81845238D01*
X145852559Y-81984310D01*
X145707569Y-82196510D01*
X145656560Y-82448400D01*
X145656560Y-84175600D01*
X145700838Y-84410917D01*
X145839910Y-84627041D01*
X146052110Y-84772031D01*
X146093439Y-84780400D01*
X146075585Y-84792330D01*
X145750729Y-85278511D01*
X145636655Y-85852000D01*
X144584298Y-85852000D01*
X144571271Y-85786511D01*
X144246415Y-85300330D01*
X143931634Y-85090000D01*
X144246415Y-84879670D01*
X144571271Y-84393489D01*
X144685345Y-83820000D01*
X144571271Y-83246511D01*
X144246415Y-82760330D01*
X143931634Y-82550000D01*
X144246415Y-82339670D01*
X144571271Y-81853489D01*
X144685345Y-81280000D01*
X144571271Y-80706511D01*
X144246415Y-80220330D01*
X143931634Y-80010000D01*
X144246415Y-79799670D01*
X144397046Y-79574234D01*
X146701226Y-79574234D01*
X146949538Y-80175195D01*
X147408927Y-80635386D01*
X148009453Y-80884746D01*
X148659694Y-80885314D01*
X149260655Y-80637002D01*
X149720846Y-80177613D01*
X149970206Y-79577087D01*
X149970774Y-78926846D01*
X149722462Y-78325885D01*
X149263073Y-77865694D01*
X148662547Y-77616334D01*
X148012306Y-77615766D01*
X147411345Y-77864078D01*
X146951154Y-78323467D01*
X146701794Y-78923993D01*
X146701226Y-79574234D01*
X144397046Y-79574234D01*
X144571271Y-79313489D01*
X144685345Y-78740000D01*
X144571271Y-78166511D01*
X144246415Y-77680330D01*
X143931634Y-77470000D01*
X144246415Y-77259670D01*
X144571271Y-76773489D01*
X144685345Y-76200000D01*
X144571271Y-75626511D01*
X144246415Y-75140330D01*
X143760234Y-74815474D01*
X143186745Y-74701400D01*
X142817255Y-74701400D01*
X142243766Y-74815474D01*
X141757585Y-75140330D01*
X141432729Y-75626511D01*
X141318655Y-76200000D01*
X141432729Y-76773489D01*
X141757585Y-77259670D01*
X142072366Y-77470000D01*
X141757585Y-77680330D01*
X141432729Y-78166511D01*
X141318655Y-78740000D01*
X141432729Y-79313489D01*
X141757585Y-79799670D01*
X142072366Y-80010000D01*
X141757585Y-80220330D01*
X141432729Y-80706511D01*
X141414500Y-80798154D01*
X141414500Y-79649000D01*
X141361330Y-79381696D01*
X141209914Y-79155086D01*
X137902440Y-75847612D01*
X137902440Y-74813000D01*
X137858162Y-74577683D01*
X137719090Y-74361559D01*
X137506890Y-74216569D01*
X137255000Y-74165560D01*
X135755000Y-74165560D01*
X135519683Y-74209838D01*
X135303559Y-74348910D01*
X135255866Y-74418711D01*
X135219090Y-74361559D01*
X135006890Y-74216569D01*
X134755000Y-74165560D01*
X133810191Y-74165560D01*
X132345781Y-72701150D01*
X148490940Y-72701150D01*
X148490940Y-74291769D01*
X148587613Y-74525158D01*
X148766241Y-74703787D01*
X148999630Y-74800460D01*
X150590250Y-74800460D01*
X150749000Y-74641710D01*
X150749000Y-72542400D01*
X148649690Y-72542400D01*
X148490940Y-72701150D01*
X132345781Y-72701150D01*
X130183662Y-70539031D01*
X148490940Y-70539031D01*
X148490940Y-72129650D01*
X148649690Y-72288400D01*
X150749000Y-72288400D01*
X150749000Y-70189090D01*
X151003000Y-70189090D01*
X151003000Y-72288400D01*
X153102310Y-72288400D01*
X153261060Y-72129650D01*
X153261060Y-71462083D01*
X153360850Y-71617161D01*
X153573050Y-71762151D01*
X153824940Y-71813160D01*
X157325060Y-71813160D01*
X157560377Y-71768882D01*
X157776501Y-71629810D01*
X157921491Y-71417610D01*
X157972500Y-71165720D01*
X157972500Y-67665600D01*
X157928222Y-67430283D01*
X157789150Y-67214159D01*
X157576950Y-67069169D01*
X157325060Y-67018160D01*
X153824940Y-67018160D01*
X153589623Y-67062438D01*
X153373499Y-67201510D01*
X153228509Y-67413710D01*
X153177500Y-67665600D01*
X153177500Y-70337300D01*
X153164387Y-70305642D01*
X152985759Y-70127013D01*
X152752370Y-70030340D01*
X151161750Y-70030340D01*
X151003000Y-70189090D01*
X150749000Y-70189090D01*
X150590250Y-70030340D01*
X148999630Y-70030340D01*
X148766241Y-70127013D01*
X148587613Y-70305642D01*
X148490940Y-70539031D01*
X130183662Y-70539031D01*
X129977230Y-70332600D01*
X130524250Y-70332600D01*
X130683000Y-70173850D01*
X130683000Y-68707000D01*
X130937000Y-68707000D01*
X130937000Y-70173850D01*
X131095750Y-70332600D01*
X132053909Y-70332600D01*
X132287298Y-70235927D01*
X132465927Y-70057299D01*
X132562600Y-69823910D01*
X132562600Y-68865750D01*
X132403850Y-68707000D01*
X130937000Y-68707000D01*
X130683000Y-68707000D01*
X130663000Y-68707000D01*
X130663000Y-68453000D01*
X130683000Y-68453000D01*
X130683000Y-66986150D01*
X130937000Y-66986150D01*
X130937000Y-68453000D01*
X132403850Y-68453000D01*
X132562600Y-68294250D01*
X132562600Y-67462400D01*
X134124960Y-67462400D01*
X134124960Y-69697600D01*
X134169238Y-69932917D01*
X134308310Y-70149041D01*
X134520510Y-70294031D01*
X134772400Y-70345040D01*
X137007600Y-70345040D01*
X137242917Y-70300762D01*
X137459041Y-70161690D01*
X137604031Y-69949490D01*
X137655040Y-69697600D01*
X137655040Y-67462400D01*
X138950960Y-67462400D01*
X138950960Y-69697600D01*
X138995238Y-69932917D01*
X139134310Y-70149041D01*
X139346510Y-70294031D01*
X139598400Y-70345040D01*
X141833600Y-70345040D01*
X142068917Y-70300762D01*
X142285041Y-70161690D01*
X142430031Y-69949490D01*
X142481040Y-69697600D01*
X142481040Y-67462400D01*
X142436762Y-67227083D01*
X142297690Y-67010959D01*
X142085490Y-66865969D01*
X141833600Y-66814960D01*
X139598400Y-66814960D01*
X139363083Y-66859238D01*
X139146959Y-66998310D01*
X139001969Y-67210510D01*
X138950960Y-67462400D01*
X137655040Y-67462400D01*
X137610762Y-67227083D01*
X137471690Y-67010959D01*
X137259490Y-66865969D01*
X137007600Y-66814960D01*
X134772400Y-66814960D01*
X134537083Y-66859238D01*
X134320959Y-66998310D01*
X134175969Y-67210510D01*
X134124960Y-67462400D01*
X132562600Y-67462400D01*
X132562600Y-67336090D01*
X132465927Y-67102701D01*
X132287298Y-66924073D01*
X132053909Y-66827400D01*
X131095750Y-66827400D01*
X130937000Y-66986150D01*
X130683000Y-66986150D01*
X130524250Y-66827400D01*
X129566091Y-66827400D01*
X129332702Y-66924073D01*
X129154073Y-67102701D01*
X129057400Y-67336090D01*
X129057400Y-68035769D01*
X126476630Y-65455000D01*
X158493394Y-65455000D01*
X159766286Y-66727892D01*
X159766286Y-66727892D01*
G37*
X159766286Y-66727892D02*
X159825962Y-77708312D01*
X159747380Y-77654619D01*
X159495490Y-77603610D01*
X157794047Y-77603610D01*
X157921491Y-77417090D01*
X157972500Y-77165200D01*
X157972500Y-73665080D01*
X157928222Y-73429763D01*
X157789150Y-73213639D01*
X157576950Y-73068649D01*
X157325060Y-73017640D01*
X153824940Y-73017640D01*
X153589623Y-73061918D01*
X153373499Y-73200990D01*
X153261060Y-73365550D01*
X153261060Y-72701150D01*
X153102310Y-72542400D01*
X151003000Y-72542400D01*
X151003000Y-74641710D01*
X151161750Y-74800460D01*
X152752370Y-74800460D01*
X152985759Y-74703787D01*
X153164387Y-74525158D01*
X153177500Y-74493500D01*
X153177500Y-77165200D01*
X153221778Y-77400517D01*
X153360850Y-77616641D01*
X153573050Y-77761631D01*
X153824940Y-77812640D01*
X157027523Y-77812640D01*
X156900079Y-77999160D01*
X156849070Y-78251050D01*
X156849070Y-80250030D01*
X156893348Y-80485347D01*
X157032420Y-80701471D01*
X157244620Y-80846461D01*
X157496510Y-80897470D01*
X159495490Y-80897470D01*
X159730807Y-80853192D01*
X159842663Y-80781215D01*
X159970000Y-104211254D01*
X159970000Y-113282110D01*
X144422911Y-113116715D01*
X144556327Y-112983298D01*
X144653000Y-112749909D01*
X144653000Y-112045750D01*
X144494250Y-111887000D01*
X143129000Y-111887000D01*
X143129000Y-111907000D01*
X142875000Y-111907000D01*
X142875000Y-111887000D01*
X141509750Y-111887000D01*
X141351000Y-112045750D01*
X141351000Y-112749909D01*
X141447673Y-112983298D01*
X141550532Y-113086158D01*
X136272351Y-113030007D01*
X136271000Y-113030000D01*
X131924828Y-113030000D01*
X132065914Y-112888914D01*
X132217330Y-112662305D01*
X132247156Y-112512357D01*
X132614811Y-112266698D01*
X132925880Y-111801151D01*
X133035113Y-111252000D01*
X132925880Y-110702849D01*
X132614811Y-110237302D01*
X132232725Y-109982000D01*
X132614811Y-109726698D01*
X132925880Y-109261151D01*
X133035113Y-108712000D01*
X132925880Y-108162849D01*
X132614811Y-107697302D01*
X132582930Y-107676000D01*
X133857818Y-107676000D01*
X133899838Y-107899317D01*
X134038910Y-108115441D01*
X134251110Y-108260431D01*
X134503000Y-108311440D01*
X135699500Y-108311440D01*
X135699500Y-109283500D01*
X135757504Y-109575105D01*
X135819280Y-109667559D01*
X135922685Y-109822315D01*
X136748184Y-110647815D01*
X136931183Y-110770091D01*
X136995395Y-110812996D01*
X137287000Y-110871000D01*
X137804673Y-110871000D01*
X137728887Y-111252000D01*
X137838120Y-111801151D01*
X138149189Y-112266698D01*
X138614736Y-112577767D01*
X139163887Y-112687000D01*
X139220113Y-112687000D01*
X139769264Y-112577767D01*
X140234811Y-112266698D01*
X140545880Y-111801151D01*
X140655113Y-111252000D01*
X140545880Y-110702849D01*
X140502582Y-110638048D01*
X141000815Y-110139816D01*
X141165996Y-109892605D01*
X141171067Y-109867110D01*
X141224000Y-109601000D01*
X141224000Y-106297130D01*
X141469196Y-106051934D01*
X141432729Y-106106511D01*
X141318655Y-106680000D01*
X141432729Y-107253489D01*
X141757585Y-107739670D01*
X142072366Y-107950000D01*
X141757585Y-108160330D01*
X141432729Y-108646511D01*
X141318655Y-109220000D01*
X141432729Y-109793489D01*
X141757585Y-110279670D01*
X141779780Y-110294500D01*
X141626301Y-110358073D01*
X141447673Y-110536702D01*
X141351000Y-110770091D01*
X141351000Y-111474250D01*
X141509750Y-111633000D01*
X142875000Y-111633000D01*
X142875000Y-111613000D01*
X143129000Y-111613000D01*
X143129000Y-111633000D01*
X144494250Y-111633000D01*
X144653000Y-111474250D01*
X144653000Y-111082285D01*
X153594760Y-111082285D01*
X153805169Y-111591515D01*
X154194436Y-111981461D01*
X154703298Y-112192759D01*
X155254285Y-112193240D01*
X155763515Y-111982831D01*
X156153461Y-111593564D01*
X156364759Y-111084702D01*
X156365240Y-110533715D01*
X156154831Y-110024485D01*
X155765564Y-109634539D01*
X155256702Y-109423241D01*
X154705715Y-109422760D01*
X154196485Y-109633169D01*
X153806539Y-110022436D01*
X153595241Y-110531298D01*
X153594760Y-111082285D01*
X144653000Y-111082285D01*
X144653000Y-110770091D01*
X144556327Y-110536702D01*
X144377699Y-110358073D01*
X144224220Y-110294500D01*
X144246415Y-110279670D01*
X144571271Y-109793489D01*
X144685345Y-109220000D01*
X144571271Y-108646511D01*
X144246415Y-108160330D01*
X143931634Y-107950000D01*
X144246415Y-107739670D01*
X144571271Y-107253489D01*
X144685345Y-106680000D01*
X144571271Y-106106511D01*
X144246415Y-105620330D01*
X143931634Y-105410000D01*
X144246415Y-105199670D01*
X144571271Y-104713489D01*
X144685345Y-104140000D01*
X144571271Y-103566511D01*
X144275595Y-103124000D01*
X145636655Y-103124000D01*
X145750729Y-103697489D01*
X146075585Y-104183670D01*
X146390366Y-104394000D01*
X146075585Y-104604330D01*
X145750729Y-105090511D01*
X145636655Y-105664000D01*
X145750729Y-106237489D01*
X146075585Y-106723670D01*
X146561766Y-107048526D01*
X147135255Y-107162600D01*
X147504745Y-107162600D01*
X148078234Y-107048526D01*
X148564415Y-106723670D01*
X148889271Y-106237489D01*
X149003345Y-105664000D01*
X148889271Y-105090511D01*
X148883775Y-105082285D01*
X153594760Y-105082285D01*
X153805169Y-105591515D01*
X154194436Y-105981461D01*
X154703298Y-106192759D01*
X155254285Y-106193240D01*
X155763515Y-105982831D01*
X156153461Y-105593564D01*
X156364759Y-105084702D01*
X156365240Y-104533715D01*
X156154831Y-104024485D01*
X155765564Y-103634539D01*
X155256702Y-103423241D01*
X154705715Y-103422760D01*
X154196485Y-103633169D01*
X153806539Y-104022436D01*
X153595241Y-104531298D01*
X153594760Y-105082285D01*
X148883775Y-105082285D01*
X148564415Y-104604330D01*
X148249634Y-104394000D01*
X148564415Y-104183670D01*
X148889271Y-103697489D01*
X149003345Y-103124000D01*
X148889271Y-102550511D01*
X148564415Y-102064330D01*
X148550087Y-102054757D01*
X148571317Y-102050762D01*
X148787441Y-101911690D01*
X148932431Y-101699490D01*
X148983440Y-101447600D01*
X148983440Y-101282500D01*
X149098000Y-101282500D01*
X149365305Y-101229330D01*
X149591914Y-101077914D01*
X155179914Y-95489914D01*
X155255361Y-95377000D01*
X155331330Y-95263304D01*
X155384500Y-94996000D01*
X155384500Y-92862400D01*
X155714960Y-92862400D01*
X155714960Y-95097600D01*
X155759238Y-95332917D01*
X155898310Y-95549041D01*
X156110510Y-95694031D01*
X156362400Y-95745040D01*
X158597600Y-95745040D01*
X158832917Y-95700762D01*
X159049041Y-95561690D01*
X159194031Y-95349490D01*
X159245040Y-95097600D01*
X159245040Y-92862400D01*
X159200762Y-92627083D01*
X159061690Y-92410959D01*
X158849490Y-92265969D01*
X158597600Y-92214960D01*
X156362400Y-92214960D01*
X156127083Y-92259238D01*
X155910959Y-92398310D01*
X155765969Y-92610510D01*
X155714960Y-92862400D01*
X155384500Y-92862400D01*
X155384500Y-89951328D01*
X155714960Y-89620868D01*
X155714960Y-91541600D01*
X155759238Y-91776917D01*
X155898310Y-91993041D01*
X156110510Y-92138031D01*
X156362400Y-92189040D01*
X158597600Y-92189040D01*
X158832917Y-92144762D01*
X159049041Y-92005690D01*
X159194031Y-91793490D01*
X159245040Y-91541600D01*
X159245040Y-89306400D01*
X159200762Y-89071083D01*
X159061690Y-88854959D01*
X158849490Y-88709969D01*
X158597600Y-88658960D01*
X156676868Y-88658960D01*
X156804388Y-88531440D01*
X158496000Y-88531440D01*
X158731317Y-88487162D01*
X158947441Y-88348090D01*
X159092431Y-88135890D01*
X159143440Y-87884000D01*
X159143440Y-85852000D01*
X159099162Y-85616683D01*
X158960090Y-85400559D01*
X158811163Y-85298802D01*
X159037670Y-84959810D01*
X159163345Y-84328000D01*
X159037670Y-83696190D01*
X158679778Y-83160567D01*
X158144155Y-82802675D01*
X157512345Y-82677000D01*
X157447655Y-82677000D01*
X156815845Y-82802675D01*
X156280222Y-83160567D01*
X155922330Y-83696190D01*
X155796655Y-84328000D01*
X155922330Y-84959810D01*
X156149499Y-85299792D01*
X156012559Y-85387910D01*
X155867569Y-85600110D01*
X155816560Y-85852000D01*
X155816560Y-87543612D01*
X154192086Y-89168086D01*
X154040670Y-89394695D01*
X154029337Y-89451670D01*
X153987500Y-89662000D01*
X153987500Y-94706672D01*
X148981909Y-99712263D01*
X148939162Y-99485083D01*
X148800090Y-99268959D01*
X148587890Y-99123969D01*
X148336000Y-99072960D01*
X146304000Y-99072960D01*
X146068683Y-99117238D01*
X145852559Y-99256310D01*
X145707569Y-99468510D01*
X145656560Y-99720400D01*
X145656560Y-101447600D01*
X145700838Y-101682917D01*
X145839910Y-101899041D01*
X146052110Y-102044031D01*
X146093439Y-102052400D01*
X146075585Y-102064330D01*
X145750729Y-102550511D01*
X145636655Y-103124000D01*
X144275595Y-103124000D01*
X144246415Y-103080330D01*
X143931634Y-102870000D01*
X144246415Y-102659670D01*
X144571271Y-102173489D01*
X144685345Y-101600000D01*
X144571271Y-101026511D01*
X144246415Y-100540330D01*
X143931634Y-100330000D01*
X144246415Y-100119670D01*
X144571271Y-99633489D01*
X144685345Y-99060000D01*
X144571271Y-98486511D01*
X144246415Y-98000330D01*
X143931634Y-97790000D01*
X144246415Y-97579670D01*
X144571271Y-97093489D01*
X144685345Y-96520000D01*
X144571271Y-95946511D01*
X144246415Y-95460330D01*
X143931634Y-95250000D01*
X144246415Y-95039670D01*
X144571271Y-94553489D01*
X144663582Y-94089410D01*
X145556086Y-94981914D01*
X145782695Y-95133330D01*
X145801190Y-95137009D01*
X146075585Y-95547670D01*
X146390366Y-95758000D01*
X146075585Y-95968330D01*
X145750729Y-96454511D01*
X145636655Y-97028000D01*
X145750729Y-97601489D01*
X146075585Y-98087670D01*
X146561766Y-98412526D01*
X147135255Y-98526600D01*
X147504745Y-98526600D01*
X148078234Y-98412526D01*
X148564415Y-98087670D01*
X148889271Y-97601489D01*
X149003345Y-97028000D01*
X148889271Y-96454511D01*
X148564415Y-95968330D01*
X148249634Y-95758000D01*
X148564415Y-95547670D01*
X148889271Y-95061489D01*
X149003345Y-94488000D01*
X148889271Y-93914511D01*
X148564415Y-93428330D01*
X148550087Y-93418757D01*
X148571317Y-93414762D01*
X148787441Y-93275690D01*
X148932431Y-93063490D01*
X148983440Y-92811600D01*
X148983440Y-91084400D01*
X148939162Y-90849083D01*
X148800090Y-90632959D01*
X148587890Y-90487969D01*
X148336000Y-90436960D01*
X146304000Y-90436960D01*
X146068683Y-90481238D01*
X145852559Y-90620310D01*
X145707569Y-90832510D01*
X145656560Y-91084400D01*
X145656560Y-92811600D01*
X145700838Y-93046917D01*
X145839910Y-93263041D01*
X146052110Y-93408031D01*
X146093439Y-93416400D01*
X146075585Y-93428330D01*
X146036561Y-93486733D01*
X145478500Y-92928672D01*
X145478500Y-90805000D01*
X145455885Y-90691305D01*
X145425330Y-90537695D01*
X145273914Y-90311086D01*
X144517216Y-89554388D01*
X144571271Y-89473489D01*
X144685345Y-88900000D01*
X144571271Y-88326511D01*
X144246415Y-87840330D01*
X143931634Y-87630000D01*
X144246415Y-87419670D01*
X144571271Y-86933489D01*
X144685345Y-86360000D01*
X144584298Y-85852000D01*
X145636655Y-85852000D01*
X145750729Y-86425489D01*
X146075585Y-86911670D01*
X146390366Y-87122000D01*
X146075585Y-87332330D01*
X145750729Y-87818511D01*
X145636655Y-88392000D01*
X145750729Y-88965489D01*
X146075585Y-89451670D01*
X146561766Y-89776526D01*
X147135255Y-89890600D01*
X147504745Y-89890600D01*
X148078234Y-89776526D01*
X148564415Y-89451670D01*
X148889271Y-88965489D01*
X149003345Y-88392000D01*
X148889271Y-87818511D01*
X148564415Y-87332330D01*
X148249634Y-87122000D01*
X148564415Y-86911670D01*
X148889271Y-86425489D01*
X149003345Y-85852000D01*
X148889271Y-85278511D01*
X148564415Y-84792330D01*
X148550087Y-84782757D01*
X148571317Y-84778762D01*
X148787441Y-84639690D01*
X148932431Y-84427490D01*
X148983440Y-84175600D01*
X148983440Y-82448400D01*
X148939162Y-82213083D01*
X148800090Y-81996959D01*
X148587890Y-81851969D01*
X148336000Y-81800960D01*
X146304000Y-81800960D01*
X146068683Y-81845238D01*
X145852559Y-81984310D01*
X145707569Y-82196510D01*
X145656560Y-82448400D01*
X145656560Y-84175600D01*
X145700838Y-84410917D01*
X145839910Y-84627041D01*
X146052110Y-84772031D01*
X146093439Y-84780400D01*
X146075585Y-84792330D01*
X145750729Y-85278511D01*
X145636655Y-85852000D01*
X144584298Y-85852000D01*
X144571271Y-85786511D01*
X144246415Y-85300330D01*
X143931634Y-85090000D01*
X144246415Y-84879670D01*
X144571271Y-84393489D01*
X144685345Y-83820000D01*
X144571271Y-83246511D01*
X144246415Y-82760330D01*
X143931634Y-82550000D01*
X144246415Y-82339670D01*
X144571271Y-81853489D01*
X144685345Y-81280000D01*
X144571271Y-80706511D01*
X144246415Y-80220330D01*
X143931634Y-80010000D01*
X144246415Y-79799670D01*
X144397046Y-79574234D01*
X146701226Y-79574234D01*
X146949538Y-80175195D01*
X147408927Y-80635386D01*
X148009453Y-80884746D01*
X148659694Y-80885314D01*
X149260655Y-80637002D01*
X149720846Y-80177613D01*
X149970206Y-79577087D01*
X149970774Y-78926846D01*
X149722462Y-78325885D01*
X149263073Y-77865694D01*
X148662547Y-77616334D01*
X148012306Y-77615766D01*
X147411345Y-77864078D01*
X146951154Y-78323467D01*
X146701794Y-78923993D01*
X146701226Y-79574234D01*
X144397046Y-79574234D01*
X144571271Y-79313489D01*
X144685345Y-78740000D01*
X144571271Y-78166511D01*
X144246415Y-77680330D01*
X143931634Y-77470000D01*
X144246415Y-77259670D01*
X144571271Y-76773489D01*
X144685345Y-76200000D01*
X144571271Y-75626511D01*
X144246415Y-75140330D01*
X143760234Y-74815474D01*
X143186745Y-74701400D01*
X142817255Y-74701400D01*
X142243766Y-74815474D01*
X141757585Y-75140330D01*
X141432729Y-75626511D01*
X141318655Y-76200000D01*
X141432729Y-76773489D01*
X141757585Y-77259670D01*
X142072366Y-77470000D01*
X141757585Y-77680330D01*
X141432729Y-78166511D01*
X141318655Y-78740000D01*
X141432729Y-79313489D01*
X141757585Y-79799670D01*
X142072366Y-80010000D01*
X141757585Y-80220330D01*
X141432729Y-80706511D01*
X141414500Y-80798154D01*
X141414500Y-79649000D01*
X141361330Y-79381696D01*
X141209914Y-79155086D01*
X137902440Y-75847612D01*
X137902440Y-74813000D01*
X137858162Y-74577683D01*
X137719090Y-74361559D01*
X137506890Y-74216569D01*
X137255000Y-74165560D01*
X135755000Y-74165560D01*
X135519683Y-74209838D01*
X135303559Y-74348910D01*
X135255866Y-74418711D01*
X135219090Y-74361559D01*
X135006890Y-74216569D01*
X134755000Y-74165560D01*
X133810191Y-74165560D01*
X132345781Y-72701150D01*
X148490940Y-72701150D01*
X148490940Y-74291769D01*
X148587613Y-74525158D01*
X148766241Y-74703787D01*
X148999630Y-74800460D01*
X150590250Y-74800460D01*
X150749000Y-74641710D01*
X150749000Y-72542400D01*
X148649690Y-72542400D01*
X148490940Y-72701150D01*
X132345781Y-72701150D01*
X130183662Y-70539031D01*
X148490940Y-70539031D01*
X148490940Y-72129650D01*
X148649690Y-72288400D01*
X150749000Y-72288400D01*
X150749000Y-70189090D01*
X151003000Y-70189090D01*
X151003000Y-72288400D01*
X153102310Y-72288400D01*
X153261060Y-72129650D01*
X153261060Y-71462083D01*
X153360850Y-71617161D01*
X153573050Y-71762151D01*
X153824940Y-71813160D01*
X157325060Y-71813160D01*
X157560377Y-71768882D01*
X157776501Y-71629810D01*
X157921491Y-71417610D01*
X157972500Y-71165720D01*
X157972500Y-67665600D01*
X157928222Y-67430283D01*
X157789150Y-67214159D01*
X157576950Y-67069169D01*
X157325060Y-67018160D01*
X153824940Y-67018160D01*
X153589623Y-67062438D01*
X153373499Y-67201510D01*
X153228509Y-67413710D01*
X153177500Y-67665600D01*
X153177500Y-70337300D01*
X153164387Y-70305642D01*
X152985759Y-70127013D01*
X152752370Y-70030340D01*
X151161750Y-70030340D01*
X151003000Y-70189090D01*
X150749000Y-70189090D01*
X150590250Y-70030340D01*
X148999630Y-70030340D01*
X148766241Y-70127013D01*
X148587613Y-70305642D01*
X148490940Y-70539031D01*
X130183662Y-70539031D01*
X129977230Y-70332600D01*
X130524250Y-70332600D01*
X130683000Y-70173850D01*
X130683000Y-68707000D01*
X130937000Y-68707000D01*
X130937000Y-70173850D01*
X131095750Y-70332600D01*
X132053909Y-70332600D01*
X132287298Y-70235927D01*
X132465927Y-70057299D01*
X132562600Y-69823910D01*
X132562600Y-68865750D01*
X132403850Y-68707000D01*
X130937000Y-68707000D01*
X130683000Y-68707000D01*
X130663000Y-68707000D01*
X130663000Y-68453000D01*
X130683000Y-68453000D01*
X130683000Y-66986150D01*
X130937000Y-66986150D01*
X130937000Y-68453000D01*
X132403850Y-68453000D01*
X132562600Y-68294250D01*
X132562600Y-67462400D01*
X134124960Y-67462400D01*
X134124960Y-69697600D01*
X134169238Y-69932917D01*
X134308310Y-70149041D01*
X134520510Y-70294031D01*
X134772400Y-70345040D01*
X137007600Y-70345040D01*
X137242917Y-70300762D01*
X137459041Y-70161690D01*
X137604031Y-69949490D01*
X137655040Y-69697600D01*
X137655040Y-67462400D01*
X138950960Y-67462400D01*
X138950960Y-69697600D01*
X138995238Y-69932917D01*
X139134310Y-70149041D01*
X139346510Y-70294031D01*
X139598400Y-70345040D01*
X141833600Y-70345040D01*
X142068917Y-70300762D01*
X142285041Y-70161690D01*
X142430031Y-69949490D01*
X142481040Y-69697600D01*
X142481040Y-67462400D01*
X142436762Y-67227083D01*
X142297690Y-67010959D01*
X142085490Y-66865969D01*
X141833600Y-66814960D01*
X139598400Y-66814960D01*
X139363083Y-66859238D01*
X139146959Y-66998310D01*
X139001969Y-67210510D01*
X138950960Y-67462400D01*
X137655040Y-67462400D01*
X137610762Y-67227083D01*
X137471690Y-67010959D01*
X137259490Y-66865969D01*
X137007600Y-66814960D01*
X134772400Y-66814960D01*
X134537083Y-66859238D01*
X134320959Y-66998310D01*
X134175969Y-67210510D01*
X134124960Y-67462400D01*
X132562600Y-67462400D01*
X132562600Y-67336090D01*
X132465927Y-67102701D01*
X132287298Y-66924073D01*
X132053909Y-66827400D01*
X131095750Y-66827400D01*
X130937000Y-66986150D01*
X130683000Y-66986150D01*
X130524250Y-66827400D01*
X129566091Y-66827400D01*
X129332702Y-66924073D01*
X129154073Y-67102701D01*
X129057400Y-67336090D01*
X129057400Y-68035769D01*
X126476630Y-65455000D01*
X158493394Y-65455000D01*
X159766286Y-66727892D01*
G36*
X118529569Y-74881310D02*
X118478560Y-75133200D01*
X118478560Y-78790800D01*
X118522838Y-79026117D01*
X118661910Y-79242241D01*
X118874110Y-79387231D01*
X119126000Y-79438240D01*
X121158000Y-79438240D01*
X121393317Y-79393962D01*
X121475500Y-79341079D01*
X121475500Y-81498672D01*
X116550672Y-86423500D01*
X114797109Y-86423500D01*
X114617034Y-86153999D01*
X114659698Y-86136327D01*
X114838327Y-85957699D01*
X114935000Y-85724310D01*
X114935000Y-84867750D01*
X114776250Y-84709000D01*
X113411000Y-84709000D01*
X113411000Y-84729000D01*
X113157000Y-84729000D01*
X113157000Y-84709000D01*
X113137000Y-84709000D01*
X113137000Y-84455000D01*
X113157000Y-84455000D01*
X113157000Y-83089750D01*
X113411000Y-83089750D01*
X113411000Y-84455000D01*
X114776250Y-84455000D01*
X114935000Y-84296250D01*
X114935000Y-83439690D01*
X114838327Y-83206301D01*
X114659698Y-83027673D01*
X114426309Y-82931000D01*
X113569750Y-82931000D01*
X113411000Y-83089750D01*
X113157000Y-83089750D01*
X112998250Y-82931000D01*
X112204500Y-82931000D01*
X112204500Y-81569328D01*
X113370388Y-80403440D01*
X114554000Y-80403440D01*
X114789317Y-80359162D01*
X115005441Y-80220090D01*
X115150431Y-80007890D01*
X115201440Y-79756000D01*
X115201440Y-78740000D01*
X115157162Y-78504683D01*
X115018090Y-78288559D01*
X114805890Y-78143569D01*
X114617686Y-78105457D01*
X114789317Y-78073162D01*
X115005441Y-77934090D01*
X115150431Y-77721890D01*
X115201440Y-77470000D01*
X115201440Y-76454000D01*
X115174896Y-76312932D01*
X116621328Y-74866500D01*
X118539688Y-74866500D01*
X118529569Y-74881310D01*
X118529569Y-74881310D01*
G37*
X118529569Y-74881310D02*
X118478560Y-75133200D01*
X118478560Y-78790800D01*
X118522838Y-79026117D01*
X118661910Y-79242241D01*
X118874110Y-79387231D01*
X119126000Y-79438240D01*
X121158000Y-79438240D01*
X121393317Y-79393962D01*
X121475500Y-79341079D01*
X121475500Y-81498672D01*
X116550672Y-86423500D01*
X114797109Y-86423500D01*
X114617034Y-86153999D01*
X114659698Y-86136327D01*
X114838327Y-85957699D01*
X114935000Y-85724310D01*
X114935000Y-84867750D01*
X114776250Y-84709000D01*
X113411000Y-84709000D01*
X113411000Y-84729000D01*
X113157000Y-84729000D01*
X113157000Y-84709000D01*
X113137000Y-84709000D01*
X113137000Y-84455000D01*
X113157000Y-84455000D01*
X113157000Y-83089750D01*
X113411000Y-83089750D01*
X113411000Y-84455000D01*
X114776250Y-84455000D01*
X114935000Y-84296250D01*
X114935000Y-83439690D01*
X114838327Y-83206301D01*
X114659698Y-83027673D01*
X114426309Y-82931000D01*
X113569750Y-82931000D01*
X113411000Y-83089750D01*
X113157000Y-83089750D01*
X112998250Y-82931000D01*
X112204500Y-82931000D01*
X112204500Y-81569328D01*
X113370388Y-80403440D01*
X114554000Y-80403440D01*
X114789317Y-80359162D01*
X115005441Y-80220090D01*
X115150431Y-80007890D01*
X115201440Y-79756000D01*
X115201440Y-78740000D01*
X115157162Y-78504683D01*
X115018090Y-78288559D01*
X114805890Y-78143569D01*
X114617686Y-78105457D01*
X114789317Y-78073162D01*
X115005441Y-77934090D01*
X115150431Y-77721890D01*
X115201440Y-77470000D01*
X115201440Y-76454000D01*
X115174896Y-76312932D01*
X116621328Y-74866500D01*
X118539688Y-74866500D01*
X118529569Y-74881310D01*
M02*
