G04 #@! TF.FileFunction,Legend,Bot*
%FSLAX46Y46*%
G04 Gerber Fmt 4.6, Leading zero omitted, Abs format (unit mm)*
G04 Created by KiCad (PCBNEW 4.0.4-stable) date 10/08/16 21:13:51*
%MOMM*%
%LPD*%
G01*
G04 APERTURE LIST*
%ADD10C,0.152400*%
%ADD11C,0.150000*%
G04 APERTURE END LIST*
D10*
D11*
X134278000Y-83812000D02*
X134278000Y-82812000D01*
X135978000Y-82812000D02*
X135978000Y-83812000D01*
X134278000Y-106164000D02*
X134278000Y-105164000D01*
X135978000Y-105164000D02*
X135978000Y-106164000D01*
X134501000Y-99734000D02*
X135501000Y-99734000D01*
X135501000Y-101434000D02*
X134501000Y-101434000D01*
X134755000Y-74588000D02*
X135755000Y-74588000D01*
X135755000Y-76288000D02*
X134755000Y-76288000D01*
X123436000Y-111594000D02*
X122436000Y-111594000D01*
X122436000Y-109894000D02*
X123436000Y-109894000D01*
X135755000Y-79590000D02*
X134755000Y-79590000D01*
X134755000Y-77890000D02*
X135755000Y-77890000D01*
X122623000Y-67580000D02*
X122623000Y-69580000D01*
X124773000Y-69580000D02*
X124773000Y-67580000D01*
X122623000Y-75708000D02*
X122623000Y-77708000D01*
X124773000Y-77708000D02*
X124773000Y-75708000D01*
X114316000Y-110549000D02*
X116316000Y-110549000D01*
X116316000Y-108399000D02*
X114316000Y-108399000D01*
X115570000Y-72390000D02*
X112522000Y-72390000D01*
X112522000Y-72390000D02*
X112522000Y-65278000D01*
X112522000Y-65278000D02*
X115570000Y-65278000D01*
X118618000Y-72390000D02*
X119380000Y-72390000D01*
X119380000Y-72390000D02*
X121666000Y-70866000D01*
X121666000Y-70866000D02*
X121666000Y-66802000D01*
X121666000Y-66802000D02*
X119380000Y-65278000D01*
X119380000Y-65278000D02*
X118618000Y-65278000D01*
X115316000Y-80518000D02*
X112268000Y-80518000D01*
X112268000Y-80518000D02*
X112268000Y-73406000D01*
X112268000Y-73406000D02*
X115316000Y-73406000D01*
X118364000Y-80518000D02*
X119126000Y-80518000D01*
X119126000Y-80518000D02*
X121412000Y-78994000D01*
X121412000Y-78994000D02*
X121412000Y-74930000D01*
X121412000Y-74930000D02*
X119126000Y-73406000D01*
X119126000Y-73406000D02*
X118364000Y-73406000D01*
X115316000Y-106680000D02*
X112268000Y-106680000D01*
X112268000Y-106680000D02*
X112268000Y-99568000D01*
X112268000Y-99568000D02*
X115316000Y-99568000D01*
X118364000Y-106680000D02*
X119126000Y-106680000D01*
X119126000Y-106680000D02*
X121412000Y-105156000D01*
X121412000Y-105156000D02*
X121412000Y-101092000D01*
X121412000Y-101092000D02*
X119126000Y-99568000D01*
X119126000Y-99568000D02*
X118364000Y-99568000D01*
X135228000Y-86320286D02*
X135256571Y-86348857D01*
X135342285Y-86377429D01*
X135399428Y-86377429D01*
X135485143Y-86348857D01*
X135542285Y-86291714D01*
X135570857Y-86234571D01*
X135599428Y-86120286D01*
X135599428Y-86034571D01*
X135570857Y-85920286D01*
X135542285Y-85863143D01*
X135485143Y-85806000D01*
X135399428Y-85777429D01*
X135342285Y-85777429D01*
X135256571Y-85806000D01*
X135228000Y-85834571D01*
X134999428Y-85834571D02*
X134970857Y-85806000D01*
X134913714Y-85777429D01*
X134770857Y-85777429D01*
X134713714Y-85806000D01*
X134685143Y-85834571D01*
X134656571Y-85891714D01*
X134656571Y-85948857D01*
X134685143Y-86034571D01*
X135028000Y-86377429D01*
X134656571Y-86377429D01*
X135228000Y-108926286D02*
X135256571Y-108954857D01*
X135342285Y-108983429D01*
X135399428Y-108983429D01*
X135485143Y-108954857D01*
X135542285Y-108897714D01*
X135570857Y-108840571D01*
X135599428Y-108726286D01*
X135599428Y-108640571D01*
X135570857Y-108526286D01*
X135542285Y-108469143D01*
X135485143Y-108412000D01*
X135399428Y-108383429D01*
X135342285Y-108383429D01*
X135256571Y-108412000D01*
X135228000Y-108440571D01*
X135028000Y-108383429D02*
X134656571Y-108383429D01*
X134856571Y-108612000D01*
X134770857Y-108612000D01*
X134713714Y-108640571D01*
X134685143Y-108669143D01*
X134656571Y-108726286D01*
X134656571Y-108869143D01*
X134685143Y-108926286D01*
X134713714Y-108954857D01*
X134770857Y-108983429D01*
X134942285Y-108983429D01*
X134999428Y-108954857D01*
X135028000Y-108926286D01*
X135228000Y-99274286D02*
X135256571Y-99302857D01*
X135342285Y-99331429D01*
X135399428Y-99331429D01*
X135485143Y-99302857D01*
X135542285Y-99245714D01*
X135570857Y-99188571D01*
X135599428Y-99074286D01*
X135599428Y-98988571D01*
X135570857Y-98874286D01*
X135542285Y-98817143D01*
X135485143Y-98760000D01*
X135399428Y-98731429D01*
X135342285Y-98731429D01*
X135256571Y-98760000D01*
X135228000Y-98788571D01*
X134713714Y-98731429D02*
X134828000Y-98731429D01*
X134885143Y-98760000D01*
X134913714Y-98788571D01*
X134970857Y-98874286D01*
X134999428Y-98988571D01*
X134999428Y-99217143D01*
X134970857Y-99274286D01*
X134942285Y-99302857D01*
X134885143Y-99331429D01*
X134770857Y-99331429D01*
X134713714Y-99302857D01*
X134685143Y-99274286D01*
X134656571Y-99217143D01*
X134656571Y-99074286D01*
X134685143Y-99017143D01*
X134713714Y-98988571D01*
X134770857Y-98960000D01*
X134885143Y-98960000D01*
X134942285Y-98988571D01*
X134970857Y-99017143D01*
X134999428Y-99074286D01*
X132548286Y-75338000D02*
X132576857Y-75309429D01*
X132605429Y-75223715D01*
X132605429Y-75166572D01*
X132576857Y-75080857D01*
X132519714Y-75023715D01*
X132462571Y-74995143D01*
X132348286Y-74966572D01*
X132262571Y-74966572D01*
X132148286Y-74995143D01*
X132091143Y-75023715D01*
X132034000Y-75080857D01*
X132005429Y-75166572D01*
X132005429Y-75223715D01*
X132034000Y-75309429D01*
X132062571Y-75338000D01*
X132005429Y-75538000D02*
X132005429Y-75938000D01*
X132605429Y-75680857D01*
X123036000Y-109180286D02*
X123064571Y-109208857D01*
X123150285Y-109237429D01*
X123207428Y-109237429D01*
X123293143Y-109208857D01*
X123350285Y-109151714D01*
X123378857Y-109094571D01*
X123407428Y-108980286D01*
X123407428Y-108894571D01*
X123378857Y-108780286D01*
X123350285Y-108723143D01*
X123293143Y-108666000D01*
X123207428Y-108637429D01*
X123150285Y-108637429D01*
X123064571Y-108666000D01*
X123036000Y-108694571D01*
X122693143Y-108894571D02*
X122750285Y-108866000D01*
X122778857Y-108837429D01*
X122807428Y-108780286D01*
X122807428Y-108751714D01*
X122778857Y-108694571D01*
X122750285Y-108666000D01*
X122693143Y-108637429D01*
X122578857Y-108637429D01*
X122521714Y-108666000D01*
X122493143Y-108694571D01*
X122464571Y-108751714D01*
X122464571Y-108780286D01*
X122493143Y-108837429D01*
X122521714Y-108866000D01*
X122578857Y-108894571D01*
X122693143Y-108894571D01*
X122750285Y-108923143D01*
X122778857Y-108951714D01*
X122807428Y-109008857D01*
X122807428Y-109123143D01*
X122778857Y-109180286D01*
X122750285Y-109208857D01*
X122693143Y-109237429D01*
X122578857Y-109237429D01*
X122521714Y-109208857D01*
X122493143Y-109180286D01*
X122464571Y-109123143D01*
X122464571Y-109008857D01*
X122493143Y-108951714D01*
X122521714Y-108923143D01*
X122578857Y-108894571D01*
X132548286Y-78640000D02*
X132576857Y-78611429D01*
X132605429Y-78525715D01*
X132605429Y-78468572D01*
X132576857Y-78382857D01*
X132519714Y-78325715D01*
X132462571Y-78297143D01*
X132348286Y-78268572D01*
X132262571Y-78268572D01*
X132148286Y-78297143D01*
X132091143Y-78325715D01*
X132034000Y-78382857D01*
X132005429Y-78468572D01*
X132005429Y-78525715D01*
X132034000Y-78611429D01*
X132062571Y-78640000D01*
X132605429Y-78925715D02*
X132605429Y-79040000D01*
X132576857Y-79097143D01*
X132548286Y-79125715D01*
X132462571Y-79182857D01*
X132348286Y-79211429D01*
X132119714Y-79211429D01*
X132062571Y-79182857D01*
X132034000Y-79154286D01*
X132005429Y-79097143D01*
X132005429Y-78982857D01*
X132034000Y-78925715D01*
X132062571Y-78897143D01*
X132119714Y-78868572D01*
X132262571Y-78868572D01*
X132319714Y-78897143D01*
X132348286Y-78925715D01*
X132376857Y-78982857D01*
X132376857Y-79097143D01*
X132348286Y-79154286D01*
X132319714Y-79182857D01*
X132262571Y-79211429D01*
X125830000Y-66819429D02*
X126030000Y-66533714D01*
X126172857Y-66819429D02*
X126172857Y-66219429D01*
X125944285Y-66219429D01*
X125887143Y-66248000D01*
X125858571Y-66276571D01*
X125830000Y-66333714D01*
X125830000Y-66419429D01*
X125858571Y-66476571D01*
X125887143Y-66505143D01*
X125944285Y-66533714D01*
X126172857Y-66533714D01*
X125630000Y-66219429D02*
X125258571Y-66219429D01*
X125458571Y-66448000D01*
X125372857Y-66448000D01*
X125315714Y-66476571D01*
X125287143Y-66505143D01*
X125258571Y-66562286D01*
X125258571Y-66705143D01*
X125287143Y-66762286D01*
X125315714Y-66790857D01*
X125372857Y-66819429D01*
X125544285Y-66819429D01*
X125601428Y-66790857D01*
X125630000Y-66762286D01*
X125576000Y-74947429D02*
X125776000Y-74661714D01*
X125918857Y-74947429D02*
X125918857Y-74347429D01*
X125690285Y-74347429D01*
X125633143Y-74376000D01*
X125604571Y-74404571D01*
X125576000Y-74461714D01*
X125576000Y-74547429D01*
X125604571Y-74604571D01*
X125633143Y-74633143D01*
X125690285Y-74661714D01*
X125918857Y-74661714D01*
X125061714Y-74347429D02*
X125176000Y-74347429D01*
X125233143Y-74376000D01*
X125261714Y-74404571D01*
X125318857Y-74490286D01*
X125347428Y-74604571D01*
X125347428Y-74833143D01*
X125318857Y-74890286D01*
X125290285Y-74918857D01*
X125233143Y-74947429D01*
X125118857Y-74947429D01*
X125061714Y-74918857D01*
X125033143Y-74890286D01*
X125004571Y-74833143D01*
X125004571Y-74690286D01*
X125033143Y-74633143D01*
X125061714Y-74604571D01*
X125118857Y-74576000D01*
X125233143Y-74576000D01*
X125290285Y-74604571D01*
X125318857Y-74633143D01*
X125347428Y-74690286D01*
X117448000Y-111777429D02*
X117648000Y-111491714D01*
X117790857Y-111777429D02*
X117790857Y-111177429D01*
X117562285Y-111177429D01*
X117505143Y-111206000D01*
X117476571Y-111234571D01*
X117448000Y-111291714D01*
X117448000Y-111377429D01*
X117476571Y-111434571D01*
X117505143Y-111463143D01*
X117562285Y-111491714D01*
X117790857Y-111491714D01*
X117162285Y-111777429D02*
X117048000Y-111777429D01*
X116990857Y-111748857D01*
X116962285Y-111720286D01*
X116905143Y-111634571D01*
X116876571Y-111520286D01*
X116876571Y-111291714D01*
X116905143Y-111234571D01*
X116933714Y-111206000D01*
X116990857Y-111177429D01*
X117105143Y-111177429D01*
X117162285Y-111206000D01*
X117190857Y-111234571D01*
X117219428Y-111291714D01*
X117219428Y-111434571D01*
X117190857Y-111491714D01*
X117162285Y-111520286D01*
X117105143Y-111548857D01*
X116990857Y-111548857D01*
X116933714Y-111520286D01*
X116905143Y-111491714D01*
X116876571Y-111434571D01*
X121469143Y-72718571D02*
X121526286Y-72690000D01*
X121583429Y-72632857D01*
X121669143Y-72547143D01*
X121726286Y-72518571D01*
X121783429Y-72518571D01*
X121754857Y-72661429D02*
X121812000Y-72632857D01*
X121869143Y-72575714D01*
X121897714Y-72461429D01*
X121897714Y-72261429D01*
X121869143Y-72147143D01*
X121812000Y-72090000D01*
X121754857Y-72061429D01*
X121640571Y-72061429D01*
X121583429Y-72090000D01*
X121526286Y-72147143D01*
X121497714Y-72261429D01*
X121497714Y-72461429D01*
X121526286Y-72575714D01*
X121583429Y-72632857D01*
X121640571Y-72661429D01*
X121754857Y-72661429D01*
X120926286Y-72661429D02*
X121269143Y-72661429D01*
X121097715Y-72661429D02*
X121097715Y-72061429D01*
X121154858Y-72147143D01*
X121212000Y-72204286D01*
X121269143Y-72232857D01*
X120961143Y-80846571D02*
X121018286Y-80818000D01*
X121075429Y-80760857D01*
X121161143Y-80675143D01*
X121218286Y-80646571D01*
X121275429Y-80646571D01*
X121246857Y-80789429D02*
X121304000Y-80760857D01*
X121361143Y-80703714D01*
X121389714Y-80589429D01*
X121389714Y-80389429D01*
X121361143Y-80275143D01*
X121304000Y-80218000D01*
X121246857Y-80189429D01*
X121132571Y-80189429D01*
X121075429Y-80218000D01*
X121018286Y-80275143D01*
X120989714Y-80389429D01*
X120989714Y-80589429D01*
X121018286Y-80703714D01*
X121075429Y-80760857D01*
X121132571Y-80789429D01*
X121246857Y-80789429D01*
X120761143Y-80246571D02*
X120732572Y-80218000D01*
X120675429Y-80189429D01*
X120532572Y-80189429D01*
X120475429Y-80218000D01*
X120446858Y-80246571D01*
X120418286Y-80303714D01*
X120418286Y-80360857D01*
X120446858Y-80446571D01*
X120789715Y-80789429D01*
X120418286Y-80789429D01*
X120961143Y-106754571D02*
X121018286Y-106726000D01*
X121075429Y-106668857D01*
X121161143Y-106583143D01*
X121218286Y-106554571D01*
X121275429Y-106554571D01*
X121246857Y-106697429D02*
X121304000Y-106668857D01*
X121361143Y-106611714D01*
X121389714Y-106497429D01*
X121389714Y-106297429D01*
X121361143Y-106183143D01*
X121304000Y-106126000D01*
X121246857Y-106097429D01*
X121132571Y-106097429D01*
X121075429Y-106126000D01*
X121018286Y-106183143D01*
X120989714Y-106297429D01*
X120989714Y-106497429D01*
X121018286Y-106611714D01*
X121075429Y-106668857D01*
X121132571Y-106697429D01*
X121246857Y-106697429D01*
X120789715Y-106097429D02*
X120418286Y-106097429D01*
X120618286Y-106326000D01*
X120532572Y-106326000D01*
X120475429Y-106354571D01*
X120446858Y-106383143D01*
X120418286Y-106440286D01*
X120418286Y-106583143D01*
X120446858Y-106640286D01*
X120475429Y-106668857D01*
X120532572Y-106697429D01*
X120704000Y-106697429D01*
X120761143Y-106668857D01*
X120789715Y-106640286D01*
M02*
