M48
;DRILL file {KiCad 4.0.4-stable} date 10/08/16 21:14:24
;FORMAT={-:-/ absolute / inch / decimal}
FMAT,2
INCH,TZ
T1C0.031
T2C0.039
T3C0.040
T4C0.050
%
G90
G05
M72
T1
X5.18Y-3.22
X5.18Y-3.32
X5.18Y-3.42
X5.18Y-3.52
X5.18Y-4.08
X5.18Y-4.18
X5.18Y-4.28
X5.18Y-4.38
X5.48Y-3.22
X5.48Y-3.32
X5.48Y-3.42
X5.48Y-3.52
X5.48Y-4.08
X5.48Y-4.18
X5.48Y-4.28
X5.48Y-4.38
T2
X6.24Y-3.1201
T3
X4.46Y-3.33
X4.46Y-3.43
X4.46Y-3.56
X4.46Y-3.66
X5.03Y-3.
X5.03Y-3.1
X5.03Y-3.2
X5.03Y-3.3
X5.03Y-3.4
X5.03Y-3.5
X5.03Y-3.6
X5.03Y-3.7
X5.03Y-3.8
X5.03Y-3.9
X5.03Y-4.
X5.03Y-4.1
X5.03Y-4.2
X5.03Y-4.3
X5.03Y-4.4
X5.15Y-2.7
X5.35Y-2.7
X5.54Y-2.7
X5.63Y-3.
X5.63Y-3.1
X5.63Y-3.2
X5.63Y-3.3
X5.63Y-3.4
X5.63Y-3.5
X5.63Y-3.6
X5.63Y-3.7
X5.63Y-3.8
X5.63Y-3.9
X5.63Y-4.
X5.63Y-4.1
X5.63Y-4.2
X5.63Y-4.3
X5.63Y-4.4
X5.8Y-3.28
X5.8Y-3.38
X5.8Y-3.48
X5.8Y-3.62
X5.8Y-3.72
X5.8Y-3.82
X5.8Y-3.96
X5.8Y-4.06
X5.8Y-4.16
X6.2Y-3.32
X6.2Y-3.42
X6.2Y-3.56
X6.2Y-3.7
T4
X5.84Y-3.1201
T2
X5.94Y-2.8116G85X5.94Y-2.8903
G05
X6.1643Y-2.7329G85X6.0857Y-2.7329
G05
X6.1643Y-2.9691G85X6.0857Y-2.9691
G05
T0
M30
