G04 #@! TF.FileFunction,Copper,L1,Top,Signal*
%FSLAX46Y46*%
G04 Gerber Fmt 4.6, Leading zero omitted, Abs format (unit mm)*
G04 Created by KiCad (PCBNEW 4.0.4-stable) date 10/08/16 21:13:50*
%MOMM*%
%LPD*%
G01*
G04 APERTURE LIST*
%ADD10C,0.152400*%
%ADD11R,1.500000X1.250000*%
%ADD12C,1.998980*%
%ADD13R,1.998980X1.998980*%
%ADD14R,3.500120X3.500120*%
%ADD15R,2.032000X1.727200*%
%ADD16O,2.032000X1.727200*%
%ADD17R,2.032000X2.032000*%
%ADD18O,2.032000X2.032000*%
%ADD19R,2.235200X2.235200*%
%ADD20R,1.700000X2.000000*%
%ADD21R,2.000000X1.700000*%
%ADD22O,1.600000X1.600000*%
%ADD23R,2.000000X2.300000*%
%ADD24C,1.500000*%
%ADD25R,2.300000X2.000000*%
%ADD26C,0.254000*%
%ADD27C,0.127000*%
%ADD28C,0.500000*%
G04 APERTURE END LIST*
D10*
D11*
X156190000Y-99695000D03*
X153690000Y-99695000D03*
X136124000Y-93218000D03*
X133624000Y-93218000D03*
X136124000Y-95504000D03*
X133624000Y-95504000D03*
D12*
X148336000Y-79250540D03*
D13*
X158496000Y-79250540D03*
D14*
X155575000Y-75415140D03*
X155575000Y-69415660D03*
X150876000Y-72415400D03*
D15*
X147320000Y-91948000D03*
D16*
X147320000Y-94488000D03*
X147320000Y-97028000D03*
D15*
X147320000Y-100584000D03*
D16*
X147320000Y-103124000D03*
X147320000Y-105664000D03*
D15*
X147320000Y-83312000D03*
D16*
X147320000Y-85852000D03*
X147320000Y-88392000D03*
D17*
X113284000Y-84582000D03*
D18*
X113284000Y-87122000D03*
D17*
X113284000Y-90424000D03*
D18*
X113284000Y-92964000D03*
D19*
X157480000Y-90424000D03*
D17*
X157480000Y-86868000D03*
D18*
X157480000Y-84328000D03*
D20*
X120904000Y-107982000D03*
X120904000Y-111982000D03*
X117348000Y-107982000D03*
X117348000Y-111982000D03*
X114300000Y-107982000D03*
X114300000Y-111982000D03*
X123952000Y-107982000D03*
X123952000Y-111982000D03*
D21*
X137128000Y-99314000D03*
X133128000Y-99314000D03*
X137128000Y-77724000D03*
X133128000Y-77724000D03*
D19*
X130810000Y-68580000D03*
X135890000Y-68580000D03*
X140716000Y-68580000D03*
X157480000Y-93980000D03*
D22*
X131572000Y-103632000D03*
X131572000Y-106172000D03*
X131572000Y-108712000D03*
X131572000Y-111252000D03*
X139192000Y-111252000D03*
X139192000Y-108712000D03*
X139192000Y-106172000D03*
X139192000Y-103632000D03*
X131572000Y-81788000D03*
X131572000Y-84328000D03*
X131572000Y-86868000D03*
X131572000Y-89408000D03*
X139192000Y-89408000D03*
X139192000Y-86868000D03*
X139192000Y-84328000D03*
X139192000Y-81788000D03*
D15*
X127762000Y-111760000D03*
D16*
X127762000Y-109220000D03*
X127762000Y-106680000D03*
X127762000Y-104140000D03*
X127762000Y-101600000D03*
X127762000Y-99060000D03*
X127762000Y-96520000D03*
X127762000Y-93980000D03*
X127762000Y-91440000D03*
X127762000Y-88900000D03*
X127762000Y-86360000D03*
X127762000Y-83820000D03*
X127762000Y-81280000D03*
X127762000Y-78740000D03*
X127762000Y-76200000D03*
D15*
X143002000Y-111760000D03*
D16*
X143002000Y-109220000D03*
X143002000Y-106680000D03*
X143002000Y-104140000D03*
X143002000Y-101600000D03*
X143002000Y-99060000D03*
X143002000Y-96520000D03*
X143002000Y-93980000D03*
X143002000Y-91440000D03*
X143002000Y-88900000D03*
X143002000Y-86360000D03*
X143002000Y-83820000D03*
X143002000Y-81280000D03*
X143002000Y-78740000D03*
X143002000Y-76200000D03*
D23*
X122658000Y-94996000D03*
X113436000Y-102616000D03*
X122658000Y-102616000D03*
X116136000Y-94996000D03*
D24*
X114236000Y-98846000D03*
X120236000Y-98846000D03*
D25*
X151130000Y-102386000D03*
X158750000Y-111608000D03*
X158750000Y-102386000D03*
X151130000Y-108908000D03*
D24*
X154980000Y-110808000D03*
X154980000Y-104808000D03*
D26*
X113284000Y-84582000D02*
X113284000Y-76708000D01*
X121412000Y-68580000D02*
X130810000Y-68580000D01*
X113284000Y-76708000D02*
X121412000Y-68580000D01*
X140716000Y-68580000D02*
X140716000Y-76454000D01*
X140716000Y-76454000D02*
X143002000Y-78740000D01*
X141478000Y-68580000D02*
X141478000Y-69374000D01*
X135890000Y-68580000D02*
X135890000Y-74962000D01*
X135890000Y-74962000D02*
X133128000Y-77724000D01*
X133128000Y-99314000D02*
X133159500Y-99314000D01*
X133159500Y-99314000D02*
X134747000Y-97726500D01*
X130492500Y-81788000D02*
X131572000Y-81788000D01*
X129921000Y-82359500D02*
X130492500Y-81788000D01*
X129921000Y-87503000D02*
X129921000Y-82359500D01*
X130619500Y-88201500D02*
X129921000Y-87503000D01*
X133159500Y-88201500D02*
X130619500Y-88201500D01*
X134747000Y-89789000D02*
X133159500Y-88201500D01*
X134747000Y-97726500D02*
X134747000Y-89789000D01*
X131572000Y-81788000D02*
X131572000Y-79280000D01*
X131572000Y-79280000D02*
X133128000Y-77724000D01*
X131572000Y-103632000D02*
X131572000Y-100870000D01*
X131572000Y-100870000D02*
X133128000Y-99314000D01*
D10*
X147320000Y-83312000D02*
X156464000Y-83312000D01*
D27*
X156464000Y-83312000D02*
X157480000Y-84328000D01*
X147320000Y-85852000D02*
X147066000Y-85852000D01*
D10*
X147066000Y-85852000D02*
X145034000Y-83820000D01*
X145034000Y-83820000D02*
X142875000Y-83820000D01*
X147320000Y-103124000D02*
X145796000Y-103124000D01*
X145796000Y-103124000D02*
X144780000Y-102108000D01*
X144780000Y-102108000D02*
X144780000Y-88265000D01*
D27*
X144780000Y-88265000D02*
X142875000Y-86360000D01*
D10*
X147320000Y-91948000D02*
X155956000Y-91948000D01*
D27*
X155956000Y-91948000D02*
X157480000Y-90424000D01*
D10*
X122658000Y-102616000D02*
X118618000Y-102616000D01*
X115570000Y-110712000D02*
X114300000Y-111982000D01*
X115570000Y-105664000D02*
X115570000Y-110712000D01*
X118618000Y-102616000D02*
X115570000Y-105664000D01*
D27*
X158750000Y-102386000D02*
X158750000Y-108204000D01*
D10*
X158750000Y-108204000D02*
X160401000Y-109855000D01*
X160401000Y-109855000D02*
X160401000Y-112903000D01*
X160401000Y-112903000D02*
X159258000Y-114046000D01*
X159258000Y-114046000D02*
X119666000Y-114046000D01*
D27*
X119666000Y-114046000D02*
X117348000Y-111728000D01*
D10*
X114300000Y-111728000D02*
X117348000Y-111728000D01*
D27*
X123952000Y-100838000D02*
X115214000Y-100838000D01*
X115214000Y-100838000D02*
X113436000Y-102616000D01*
D10*
X118904000Y-109982000D02*
X120904000Y-111982000D01*
X117094000Y-109982000D02*
X118904000Y-109982000D01*
X116078000Y-108966000D02*
X117094000Y-109982000D01*
X116078000Y-105918000D02*
X116078000Y-108966000D01*
X117602000Y-104394000D02*
X116078000Y-105918000D01*
X124968000Y-104394000D02*
X117602000Y-104394000D01*
D27*
X125222000Y-104140000D02*
X124968000Y-104394000D01*
X125222000Y-102108000D02*
X125222000Y-104140000D01*
X123952000Y-100838000D02*
X125222000Y-102108000D01*
X158090000Y-111608000D02*
X158750000Y-111608000D01*
X157886000Y-111608000D02*
X158750000Y-111608000D01*
X120904000Y-111728000D02*
X123952000Y-111728000D01*
X158750000Y-111608000D02*
X158750000Y-113284000D01*
X125762000Y-113538000D02*
X123952000Y-111728000D01*
X158496000Y-113538000D02*
X125762000Y-113538000D01*
X158750000Y-113284000D02*
X158496000Y-113538000D01*
X127698500Y-78803500D02*
X127635000Y-78740000D01*
X127635000Y-101600000D02*
X128905000Y-101600000D01*
D10*
X128905000Y-101600000D02*
X129540000Y-100965000D01*
D27*
X129540000Y-91440000D02*
X131572000Y-89408000D01*
D10*
X129540000Y-100965000D02*
X129540000Y-91440000D01*
D27*
X128524000Y-83820000D02*
X127635000Y-83820000D01*
D10*
X131572000Y-108712000D02*
X135636000Y-112776000D01*
X139700000Y-112776000D02*
X135636000Y-112776000D01*
D27*
X147447000Y-105537000D02*
X147320000Y-105664000D01*
D10*
X141986000Y-105537000D02*
X147447000Y-105537000D01*
X140716000Y-106807000D02*
X141986000Y-105537000D01*
D27*
X140716000Y-111760000D02*
X140716000Y-106807000D01*
D10*
X140716000Y-111760000D02*
X139700000Y-112776000D01*
D27*
X147320000Y-88392000D02*
X146050000Y-88392000D01*
D10*
X135128000Y-86868000D02*
X131572000Y-86868000D01*
X136398000Y-85598000D02*
X135128000Y-86868000D01*
X140462000Y-85598000D02*
X136398000Y-85598000D01*
X140970000Y-85090000D02*
X140462000Y-85598000D01*
X144018000Y-85090000D02*
X140970000Y-85090000D01*
X145034000Y-86106000D02*
X144018000Y-85090000D01*
X145034000Y-87376000D02*
X145034000Y-86106000D01*
X146050000Y-88392000D02*
X145034000Y-87376000D01*
D26*
X116136000Y-94996000D02*
X116136000Y-94938000D01*
X116136000Y-94938000D02*
X124968000Y-86106000D01*
X124968000Y-86106000D02*
X124968000Y-74930000D01*
X124968000Y-74930000D02*
X127508000Y-72390000D01*
X127508000Y-72390000D02*
X131318000Y-72390000D01*
X131318000Y-72390000D02*
X133350000Y-70358000D01*
X133350000Y-70358000D02*
X133350000Y-67310000D01*
X133350000Y-67310000D02*
X134366000Y-66294000D01*
X134366000Y-66294000D02*
X144272000Y-66294000D01*
X144272000Y-66294000D02*
X148336000Y-70358000D01*
X148336000Y-70358000D02*
X148336000Y-79250540D01*
X142875000Y-109220000D02*
X150818000Y-109220000D01*
X150818000Y-109220000D02*
X151130000Y-108908000D01*
X151130000Y-108908000D02*
X155887000Y-108908000D01*
X157480000Y-100584000D02*
X157480000Y-93980000D01*
X156718000Y-101346000D02*
X157480000Y-100584000D01*
X156718000Y-108077000D02*
X156718000Y-101346000D01*
X155887000Y-108908000D02*
X156718000Y-108077000D01*
X148336000Y-79250540D02*
X148336000Y-80010000D01*
X148336000Y-80010000D02*
X149606000Y-81280000D01*
X149606000Y-81280000D02*
X158115000Y-81280000D01*
X158115000Y-81280000D02*
X160020000Y-83185000D01*
X160020000Y-83185000D02*
X160020000Y-91440000D01*
X157480000Y-93980000D02*
X160020000Y-91440000D01*
D10*
X147320000Y-97028000D02*
X153523000Y-97028000D01*
X153523000Y-97028000D02*
X156190000Y-99695000D01*
D27*
X140462000Y-113157000D02*
X140589000Y-113157000D01*
X147955000Y-107823000D02*
X148844000Y-106934000D01*
X141986000Y-107823000D02*
X147955000Y-107823000D01*
X141351000Y-108458000D02*
X141986000Y-107823000D01*
D10*
X141351000Y-112395000D02*
X141351000Y-108458000D01*
X140589000Y-113157000D02*
X141351000Y-112395000D01*
X140462000Y-113157000D02*
X126492000Y-113157000D01*
D27*
X148844000Y-101600000D02*
X148844000Y-106934000D01*
X150749000Y-99695000D02*
X148844000Y-101600000D01*
X153690000Y-99695000D02*
X150749000Y-99695000D01*
X122777000Y-109855000D02*
X120904000Y-107982000D01*
X124460000Y-109855000D02*
X122777000Y-109855000D01*
X125476000Y-110871000D02*
X124460000Y-109855000D01*
X125476000Y-112141000D02*
X125476000Y-110871000D01*
X126492000Y-113157000D02*
X125476000Y-112141000D01*
X117348000Y-107982000D02*
X120904000Y-107982000D01*
D10*
X139192000Y-111252000D02*
X136144000Y-111252000D01*
D27*
X135128000Y-94214000D02*
X136124000Y-93218000D01*
D10*
X135128000Y-110236000D02*
X135128000Y-94214000D01*
X136144000Y-111252000D02*
X135128000Y-110236000D01*
D27*
X112522000Y-100330000D02*
X124206000Y-100330000D01*
D10*
X130048000Y-101346000D02*
X130048000Y-96794000D01*
X133624000Y-93218000D02*
X130048000Y-96794000D01*
X124206000Y-100330000D02*
X126746000Y-102870000D01*
X126746000Y-102870000D02*
X129032000Y-102870000D01*
D27*
X129032000Y-102870000D02*
X130048000Y-101854000D01*
X130048000Y-101854000D02*
X130048000Y-101346000D01*
X111506000Y-101346000D02*
X112522000Y-100330000D01*
D10*
X111506000Y-105918000D02*
X111506000Y-101346000D01*
X111506000Y-105918000D02*
X113570000Y-107982000D01*
D27*
X114300000Y-107982000D02*
X113570000Y-107982000D01*
D10*
X136124000Y-95504000D02*
X138176000Y-95504000D01*
X139192000Y-94488000D02*
X139192000Y-89408000D01*
X138176000Y-95504000D02*
X139192000Y-94488000D01*
X123952000Y-107982000D02*
X128746000Y-107982000D01*
X130429000Y-98699000D02*
X133624000Y-95504000D01*
X130429000Y-106299000D02*
X130429000Y-98699000D01*
X128746000Y-107982000D02*
X130429000Y-106299000D01*
D27*
X137128000Y-99314000D02*
X137795000Y-99314000D01*
X137795000Y-99314000D02*
X139192000Y-100711000D01*
X139192000Y-100711000D02*
X139192000Y-103632000D01*
D10*
X139192000Y-81788000D02*
X139192000Y-79788000D01*
X139192000Y-79788000D02*
X137128000Y-77724000D01*
D28*
X155575000Y-69415660D02*
X155575000Y-75415140D01*
D27*
X158496000Y-79250540D02*
X158496000Y-78336140D01*
D28*
X158496000Y-78336140D02*
X155575000Y-75415140D01*
D27*
X113284000Y-90932000D02*
X112268000Y-90932000D01*
D26*
G36*
X154975910Y-100771441D02*
X155188110Y-100916431D01*
X155440000Y-100967440D01*
X156940000Y-100967440D01*
X157143630Y-100929124D01*
X157003569Y-101134110D01*
X156952560Y-101386000D01*
X156952560Y-103386000D01*
X156996838Y-103621317D01*
X157135910Y-103837441D01*
X157348110Y-103982431D01*
X157600000Y-104033440D01*
X158051500Y-104033440D01*
X158051500Y-108204000D01*
X158104670Y-108471305D01*
X158256086Y-108697914D01*
X159518732Y-109960560D01*
X157600000Y-109960560D01*
X157364683Y-110004838D01*
X157148559Y-110143910D01*
X157003569Y-110356110D01*
X156952560Y-110608000D01*
X156952560Y-112608000D01*
X156996120Y-112839500D01*
X146788790Y-112839500D01*
X146670914Y-112663086D01*
X146444304Y-112511670D01*
X146177000Y-112458500D01*
X144665440Y-112458500D01*
X144665440Y-111082285D01*
X153594760Y-111082285D01*
X153805169Y-111591515D01*
X154194436Y-111981461D01*
X154703298Y-112192759D01*
X155254285Y-112193240D01*
X155763515Y-111982831D01*
X156153461Y-111593564D01*
X156364759Y-111084702D01*
X156365240Y-110533715D01*
X156154831Y-110024485D01*
X155765564Y-109634539D01*
X155256702Y-109423241D01*
X154705715Y-109422760D01*
X154196485Y-109633169D01*
X153806539Y-110022436D01*
X153595241Y-110531298D01*
X153594760Y-111082285D01*
X144665440Y-111082285D01*
X144665440Y-110896400D01*
X144621162Y-110661083D01*
X144482090Y-110444959D01*
X144269890Y-110299969D01*
X144175073Y-110280768D01*
X144352732Y-110122036D01*
X144606709Y-109594791D01*
X144609358Y-109579026D01*
X144488217Y-109347000D01*
X143129000Y-109347000D01*
X143129000Y-109367000D01*
X142875000Y-109367000D01*
X142875000Y-109347000D01*
X142855000Y-109347000D01*
X142855000Y-109193750D01*
X149345000Y-109193750D01*
X149345000Y-110034310D01*
X149441673Y-110267699D01*
X149620302Y-110446327D01*
X149853691Y-110543000D01*
X150844250Y-110543000D01*
X151003000Y-110384250D01*
X151003000Y-109035000D01*
X151257000Y-109035000D01*
X151257000Y-110384250D01*
X151415750Y-110543000D01*
X152406309Y-110543000D01*
X152639698Y-110446327D01*
X152818327Y-110267699D01*
X152915000Y-110034310D01*
X152915000Y-109193750D01*
X152756250Y-109035000D01*
X151257000Y-109035000D01*
X151003000Y-109035000D01*
X149503750Y-109035000D01*
X149345000Y-109193750D01*
X142855000Y-109193750D01*
X142855000Y-109093000D01*
X142875000Y-109093000D01*
X142875000Y-109073000D01*
X143129000Y-109073000D01*
X143129000Y-109093000D01*
X144488217Y-109093000D01*
X144609358Y-108860974D01*
X144606709Y-108845209D01*
X144450776Y-108521500D01*
X147955000Y-108521500D01*
X148222305Y-108468330D01*
X148448914Y-108316914D01*
X148984138Y-107781690D01*
X149345000Y-107781690D01*
X149345000Y-108622250D01*
X149503750Y-108781000D01*
X151003000Y-108781000D01*
X151003000Y-107431750D01*
X151257000Y-107431750D01*
X151257000Y-108781000D01*
X152756250Y-108781000D01*
X152915000Y-108622250D01*
X152915000Y-107781690D01*
X152818327Y-107548301D01*
X152639698Y-107369673D01*
X152406309Y-107273000D01*
X151415750Y-107273000D01*
X151257000Y-107431750D01*
X151003000Y-107431750D01*
X150844250Y-107273000D01*
X149853691Y-107273000D01*
X149620302Y-107369673D01*
X149441673Y-107548301D01*
X149345000Y-107781690D01*
X148984138Y-107781690D01*
X149337914Y-107427914D01*
X149489330Y-107201305D01*
X149542500Y-106934000D01*
X149542500Y-105082285D01*
X153594760Y-105082285D01*
X153805169Y-105591515D01*
X154194436Y-105981461D01*
X154703298Y-106192759D01*
X155254285Y-106193240D01*
X155763515Y-105982831D01*
X156153461Y-105593564D01*
X156364759Y-105084702D01*
X156365240Y-104533715D01*
X156154831Y-104024485D01*
X155765564Y-103634539D01*
X155256702Y-103423241D01*
X154705715Y-103422760D01*
X154196485Y-103633169D01*
X153806539Y-104022436D01*
X153595241Y-104531298D01*
X153594760Y-105082285D01*
X149542500Y-105082285D01*
X149542500Y-103855609D01*
X149728110Y-103982431D01*
X149980000Y-104033440D01*
X152280000Y-104033440D01*
X152515317Y-103989162D01*
X152731441Y-103850090D01*
X152876431Y-103637890D01*
X152927440Y-103386000D01*
X152927440Y-101386000D01*
X152883162Y-101150683D01*
X152744090Y-100934559D01*
X152729963Y-100924906D01*
X152940000Y-100967440D01*
X154440000Y-100967440D01*
X154675317Y-100923162D01*
X154891441Y-100784090D01*
X154939134Y-100714289D01*
X154975910Y-100771441D01*
X154975910Y-100771441D01*
G37*
X154975910Y-100771441D02*
X155188110Y-100916431D01*
X155440000Y-100967440D01*
X156940000Y-100967440D01*
X157143630Y-100929124D01*
X157003569Y-101134110D01*
X156952560Y-101386000D01*
X156952560Y-103386000D01*
X156996838Y-103621317D01*
X157135910Y-103837441D01*
X157348110Y-103982431D01*
X157600000Y-104033440D01*
X158051500Y-104033440D01*
X158051500Y-108204000D01*
X158104670Y-108471305D01*
X158256086Y-108697914D01*
X159518732Y-109960560D01*
X157600000Y-109960560D01*
X157364683Y-110004838D01*
X157148559Y-110143910D01*
X157003569Y-110356110D01*
X156952560Y-110608000D01*
X156952560Y-112608000D01*
X156996120Y-112839500D01*
X146788790Y-112839500D01*
X146670914Y-112663086D01*
X146444304Y-112511670D01*
X146177000Y-112458500D01*
X144665440Y-112458500D01*
X144665440Y-111082285D01*
X153594760Y-111082285D01*
X153805169Y-111591515D01*
X154194436Y-111981461D01*
X154703298Y-112192759D01*
X155254285Y-112193240D01*
X155763515Y-111982831D01*
X156153461Y-111593564D01*
X156364759Y-111084702D01*
X156365240Y-110533715D01*
X156154831Y-110024485D01*
X155765564Y-109634539D01*
X155256702Y-109423241D01*
X154705715Y-109422760D01*
X154196485Y-109633169D01*
X153806539Y-110022436D01*
X153595241Y-110531298D01*
X153594760Y-111082285D01*
X144665440Y-111082285D01*
X144665440Y-110896400D01*
X144621162Y-110661083D01*
X144482090Y-110444959D01*
X144269890Y-110299969D01*
X144175073Y-110280768D01*
X144352732Y-110122036D01*
X144606709Y-109594791D01*
X144609358Y-109579026D01*
X144488217Y-109347000D01*
X143129000Y-109347000D01*
X143129000Y-109367000D01*
X142875000Y-109367000D01*
X142875000Y-109347000D01*
X142855000Y-109347000D01*
X142855000Y-109193750D01*
X149345000Y-109193750D01*
X149345000Y-110034310D01*
X149441673Y-110267699D01*
X149620302Y-110446327D01*
X149853691Y-110543000D01*
X150844250Y-110543000D01*
X151003000Y-110384250D01*
X151003000Y-109035000D01*
X151257000Y-109035000D01*
X151257000Y-110384250D01*
X151415750Y-110543000D01*
X152406309Y-110543000D01*
X152639698Y-110446327D01*
X152818327Y-110267699D01*
X152915000Y-110034310D01*
X152915000Y-109193750D01*
X152756250Y-109035000D01*
X151257000Y-109035000D01*
X151003000Y-109035000D01*
X149503750Y-109035000D01*
X149345000Y-109193750D01*
X142855000Y-109193750D01*
X142855000Y-109093000D01*
X142875000Y-109093000D01*
X142875000Y-109073000D01*
X143129000Y-109073000D01*
X143129000Y-109093000D01*
X144488217Y-109093000D01*
X144609358Y-108860974D01*
X144606709Y-108845209D01*
X144450776Y-108521500D01*
X147955000Y-108521500D01*
X148222305Y-108468330D01*
X148448914Y-108316914D01*
X148984138Y-107781690D01*
X149345000Y-107781690D01*
X149345000Y-108622250D01*
X149503750Y-108781000D01*
X151003000Y-108781000D01*
X151003000Y-107431750D01*
X151257000Y-107431750D01*
X151257000Y-108781000D01*
X152756250Y-108781000D01*
X152915000Y-108622250D01*
X152915000Y-107781690D01*
X152818327Y-107548301D01*
X152639698Y-107369673D01*
X152406309Y-107273000D01*
X151415750Y-107273000D01*
X151257000Y-107431750D01*
X151003000Y-107431750D01*
X150844250Y-107273000D01*
X149853691Y-107273000D01*
X149620302Y-107369673D01*
X149441673Y-107548301D01*
X149345000Y-107781690D01*
X148984138Y-107781690D01*
X149337914Y-107427914D01*
X149489330Y-107201305D01*
X149542500Y-106934000D01*
X149542500Y-105082285D01*
X153594760Y-105082285D01*
X153805169Y-105591515D01*
X154194436Y-105981461D01*
X154703298Y-106192759D01*
X155254285Y-106193240D01*
X155763515Y-105982831D01*
X156153461Y-105593564D01*
X156364759Y-105084702D01*
X156365240Y-104533715D01*
X156154831Y-104024485D01*
X155765564Y-103634539D01*
X155256702Y-103423241D01*
X154705715Y-103422760D01*
X154196485Y-103633169D01*
X153806539Y-104022436D01*
X153595241Y-104531298D01*
X153594760Y-105082285D01*
X149542500Y-105082285D01*
X149542500Y-103855609D01*
X149728110Y-103982431D01*
X149980000Y-104033440D01*
X152280000Y-104033440D01*
X152515317Y-103989162D01*
X152731441Y-103850090D01*
X152876431Y-103637890D01*
X152927440Y-103386000D01*
X152927440Y-101386000D01*
X152883162Y-101150683D01*
X152744090Y-100934559D01*
X152729963Y-100924906D01*
X152940000Y-100967440D01*
X154440000Y-100967440D01*
X154675317Y-100923162D01*
X154891441Y-100784090D01*
X154939134Y-100714289D01*
X154975910Y-100771441D01*
G36*
X134429500Y-110236000D02*
X134482670Y-110503305D01*
X134634086Y-110729914D01*
X135650086Y-111745914D01*
X135876695Y-111897330D01*
X136144000Y-111950500D01*
X137937912Y-111950500D01*
X138022771Y-112077500D01*
X135925328Y-112077500D01*
X132956258Y-109108430D01*
X133035113Y-108712000D01*
X132925880Y-108162849D01*
X132614811Y-107697302D01*
X132210297Y-107427014D01*
X132427134Y-107324389D01*
X132803041Y-106909423D01*
X132963904Y-106521039D01*
X132841915Y-106299000D01*
X131699000Y-106299000D01*
X131699000Y-106319000D01*
X131445000Y-106319000D01*
X131445000Y-106299000D01*
X131425000Y-106299000D01*
X131425000Y-106045000D01*
X131445000Y-106045000D01*
X131445000Y-106025000D01*
X131699000Y-106025000D01*
X131699000Y-106045000D01*
X132841915Y-106045000D01*
X132963904Y-105822961D01*
X132803041Y-105434577D01*
X132427134Y-105019611D01*
X132210297Y-104916986D01*
X132614811Y-104646698D01*
X132925880Y-104181151D01*
X133035113Y-103632000D01*
X132925880Y-103082849D01*
X132614811Y-102617302D01*
X132334000Y-102429670D01*
X132334000Y-101185630D01*
X132708190Y-100811440D01*
X134128000Y-100811440D01*
X134363317Y-100767162D01*
X134429500Y-100724574D01*
X134429500Y-110236000D01*
X134429500Y-110236000D01*
G37*
X134429500Y-110236000D02*
X134482670Y-110503305D01*
X134634086Y-110729914D01*
X135650086Y-111745914D01*
X135876695Y-111897330D01*
X136144000Y-111950500D01*
X137937912Y-111950500D01*
X138022771Y-112077500D01*
X135925328Y-112077500D01*
X132956258Y-109108430D01*
X133035113Y-108712000D01*
X132925880Y-108162849D01*
X132614811Y-107697302D01*
X132210297Y-107427014D01*
X132427134Y-107324389D01*
X132803041Y-106909423D01*
X132963904Y-106521039D01*
X132841915Y-106299000D01*
X131699000Y-106299000D01*
X131699000Y-106319000D01*
X131445000Y-106319000D01*
X131445000Y-106299000D01*
X131425000Y-106299000D01*
X131425000Y-106045000D01*
X131445000Y-106045000D01*
X131445000Y-106025000D01*
X131699000Y-106025000D01*
X131699000Y-106045000D01*
X132841915Y-106045000D01*
X132963904Y-105822961D01*
X132803041Y-105434577D01*
X132427134Y-105019611D01*
X132210297Y-104916986D01*
X132614811Y-104646698D01*
X132925880Y-104181151D01*
X133035113Y-103632000D01*
X132925880Y-103082849D01*
X132614811Y-102617302D01*
X132334000Y-102429670D01*
X132334000Y-101185630D01*
X132708190Y-100811440D01*
X134128000Y-100811440D01*
X134363317Y-100767162D01*
X134429500Y-100724574D01*
X134429500Y-110236000D01*
G36*
X129857500Y-105882672D02*
X129381441Y-106358731D01*
X129331271Y-106106511D01*
X129006415Y-105620330D01*
X128696931Y-105413539D01*
X129112732Y-105042036D01*
X129366709Y-104514791D01*
X129369358Y-104499026D01*
X129248217Y-104267000D01*
X127889000Y-104267000D01*
X127889000Y-104287000D01*
X127635000Y-104287000D01*
X127635000Y-104267000D01*
X126275783Y-104267000D01*
X126154642Y-104499026D01*
X126157291Y-104514791D01*
X126411268Y-105042036D01*
X126827069Y-105413539D01*
X126517585Y-105620330D01*
X126192729Y-106106511D01*
X126078655Y-106680000D01*
X126192729Y-107253489D01*
X126212782Y-107283500D01*
X125449440Y-107283500D01*
X125449440Y-106982000D01*
X125405162Y-106746683D01*
X125266090Y-106530559D01*
X125053890Y-106385569D01*
X124802000Y-106334560D01*
X123102000Y-106334560D01*
X122866683Y-106378838D01*
X122650559Y-106517910D01*
X122505569Y-106730110D01*
X122454560Y-106982000D01*
X122454560Y-108544732D01*
X122401440Y-108491612D01*
X122401440Y-106982000D01*
X122357162Y-106746683D01*
X122218090Y-106530559D01*
X122005890Y-106385569D01*
X121754000Y-106334560D01*
X120054000Y-106334560D01*
X119818683Y-106378838D01*
X119602559Y-106517910D01*
X119457569Y-106730110D01*
X119406560Y-106982000D01*
X119406560Y-107283500D01*
X118845440Y-107283500D01*
X118845440Y-106982000D01*
X118801162Y-106746683D01*
X118662090Y-106530559D01*
X118449890Y-106385569D01*
X118198000Y-106334560D01*
X116776500Y-106334560D01*
X116776500Y-106207328D01*
X117891328Y-105092500D01*
X124968000Y-105092500D01*
X125235305Y-105039330D01*
X125461914Y-104887914D01*
X125715914Y-104633914D01*
X125867330Y-104407305D01*
X125920500Y-104140000D01*
X125920500Y-103032328D01*
X126252086Y-103363914D01*
X126326610Y-103413710D01*
X126157291Y-103765209D01*
X126154642Y-103780974D01*
X126275783Y-104013000D01*
X127635000Y-104013000D01*
X127635000Y-103993000D01*
X127889000Y-103993000D01*
X127889000Y-104013000D01*
X129248217Y-104013000D01*
X129369358Y-103780974D01*
X129366709Y-103765209D01*
X129250972Y-103524944D01*
X129299305Y-103515330D01*
X129525914Y-103363914D01*
X129857500Y-103032328D01*
X129857500Y-105882672D01*
X129857500Y-105882672D01*
G37*
X129857500Y-105882672D02*
X129381441Y-106358731D01*
X129331271Y-106106511D01*
X129006415Y-105620330D01*
X128696931Y-105413539D01*
X129112732Y-105042036D01*
X129366709Y-104514791D01*
X129369358Y-104499026D01*
X129248217Y-104267000D01*
X127889000Y-104267000D01*
X127889000Y-104287000D01*
X127635000Y-104287000D01*
X127635000Y-104267000D01*
X126275783Y-104267000D01*
X126154642Y-104499026D01*
X126157291Y-104514791D01*
X126411268Y-105042036D01*
X126827069Y-105413539D01*
X126517585Y-105620330D01*
X126192729Y-106106511D01*
X126078655Y-106680000D01*
X126192729Y-107253489D01*
X126212782Y-107283500D01*
X125449440Y-107283500D01*
X125449440Y-106982000D01*
X125405162Y-106746683D01*
X125266090Y-106530559D01*
X125053890Y-106385569D01*
X124802000Y-106334560D01*
X123102000Y-106334560D01*
X122866683Y-106378838D01*
X122650559Y-106517910D01*
X122505569Y-106730110D01*
X122454560Y-106982000D01*
X122454560Y-108544732D01*
X122401440Y-108491612D01*
X122401440Y-106982000D01*
X122357162Y-106746683D01*
X122218090Y-106530559D01*
X122005890Y-106385569D01*
X121754000Y-106334560D01*
X120054000Y-106334560D01*
X119818683Y-106378838D01*
X119602559Y-106517910D01*
X119457569Y-106730110D01*
X119406560Y-106982000D01*
X119406560Y-107283500D01*
X118845440Y-107283500D01*
X118845440Y-106982000D01*
X118801162Y-106746683D01*
X118662090Y-106530559D01*
X118449890Y-106385569D01*
X118198000Y-106334560D01*
X116776500Y-106334560D01*
X116776500Y-106207328D01*
X117891328Y-105092500D01*
X124968000Y-105092500D01*
X125235305Y-105039330D01*
X125461914Y-104887914D01*
X125715914Y-104633914D01*
X125867330Y-104407305D01*
X125920500Y-104140000D01*
X125920500Y-103032328D01*
X126252086Y-103363914D01*
X126326610Y-103413710D01*
X126157291Y-103765209D01*
X126154642Y-103780974D01*
X126275783Y-104013000D01*
X127635000Y-104013000D01*
X127635000Y-103993000D01*
X127889000Y-103993000D01*
X127889000Y-104013000D01*
X129248217Y-104013000D01*
X129369358Y-103780974D01*
X129366709Y-103765209D01*
X129250972Y-103524944D01*
X129299305Y-103515330D01*
X129525914Y-103363914D01*
X129857500Y-103032328D01*
X129857500Y-105882672D01*
G36*
X159647408Y-77634374D02*
X159495490Y-77603610D01*
X159015049Y-77603610D01*
X157972500Y-76561061D01*
X157972500Y-73665080D01*
X157928222Y-73429763D01*
X157789150Y-73213639D01*
X157576950Y-73068649D01*
X157325060Y-73017640D01*
X156460000Y-73017640D01*
X156460000Y-71813160D01*
X157325060Y-71813160D01*
X157560377Y-71768882D01*
X157776501Y-71629810D01*
X157921491Y-71417610D01*
X157972500Y-71165720D01*
X157972500Y-67665600D01*
X157928222Y-67430283D01*
X157789150Y-67214159D01*
X157576950Y-67069169D01*
X157325060Y-67018160D01*
X153824940Y-67018160D01*
X153589623Y-67062438D01*
X153373499Y-67201510D01*
X153228509Y-67413710D01*
X153177500Y-67665600D01*
X153177500Y-70349645D01*
X153090150Y-70213899D01*
X152877950Y-70068909D01*
X152626060Y-70017900D01*
X149125940Y-70017900D01*
X148890623Y-70062178D01*
X148674499Y-70201250D01*
X148529509Y-70413450D01*
X148478500Y-70665340D01*
X148478500Y-74165460D01*
X148522778Y-74400777D01*
X148661850Y-74616901D01*
X148874050Y-74761891D01*
X149125940Y-74812900D01*
X152626060Y-74812900D01*
X152861377Y-74768622D01*
X153077501Y-74629550D01*
X153177500Y-74483197D01*
X153177500Y-77165200D01*
X153221778Y-77400517D01*
X153360850Y-77616641D01*
X153573050Y-77761631D01*
X153824940Y-77812640D01*
X156720921Y-77812640D01*
X156903067Y-77994787D01*
X156900079Y-77999160D01*
X156849070Y-78251050D01*
X156849070Y-80250030D01*
X156893348Y-80485347D01*
X157032420Y-80701471D01*
X157244620Y-80846461D01*
X157496510Y-80897470D01*
X159495490Y-80897470D01*
X159681388Y-80862491D01*
X159890609Y-100738560D01*
X157600000Y-100738560D01*
X157396370Y-100776876D01*
X157536431Y-100571890D01*
X157587440Y-100320000D01*
X157587440Y-99070000D01*
X157543162Y-98834683D01*
X157404090Y-98618559D01*
X157191890Y-98473569D01*
X156940000Y-98422560D01*
X155905388Y-98422560D01*
X154016914Y-96534086D01*
X153790305Y-96382670D01*
X153523000Y-96329500D01*
X148805741Y-96329500D01*
X148564415Y-95968330D01*
X148249634Y-95758000D01*
X148564415Y-95547670D01*
X148889271Y-95061489D01*
X149003345Y-94488000D01*
X148959137Y-94265750D01*
X155727400Y-94265750D01*
X155727400Y-95223910D01*
X155824073Y-95457299D01*
X156002702Y-95635927D01*
X156236091Y-95732600D01*
X157194250Y-95732600D01*
X157353000Y-95573850D01*
X157353000Y-94107000D01*
X157607000Y-94107000D01*
X157607000Y-95573850D01*
X157765750Y-95732600D01*
X158723909Y-95732600D01*
X158957298Y-95635927D01*
X159135927Y-95457299D01*
X159232600Y-95223910D01*
X159232600Y-94265750D01*
X159073850Y-94107000D01*
X157607000Y-94107000D01*
X157353000Y-94107000D01*
X155886150Y-94107000D01*
X155727400Y-94265750D01*
X148959137Y-94265750D01*
X148889271Y-93914511D01*
X148564415Y-93428330D01*
X148550087Y-93418757D01*
X148571317Y-93414762D01*
X148787441Y-93275690D01*
X148932431Y-93063490D01*
X148983440Y-92811600D01*
X148983440Y-92646500D01*
X155764509Y-92646500D01*
X155727400Y-92736090D01*
X155727400Y-93694250D01*
X155886150Y-93853000D01*
X157353000Y-93853000D01*
X157353000Y-92386150D01*
X157607000Y-92386150D01*
X157607000Y-93853000D01*
X159073850Y-93853000D01*
X159232600Y-93694250D01*
X159232600Y-92736090D01*
X159135927Y-92502701D01*
X158957298Y-92324073D01*
X158723909Y-92227400D01*
X157765750Y-92227400D01*
X157607000Y-92386150D01*
X157353000Y-92386150D01*
X157194250Y-92227400D01*
X156664428Y-92227400D01*
X156702788Y-92189040D01*
X158597600Y-92189040D01*
X158832917Y-92144762D01*
X159049041Y-92005690D01*
X159194031Y-91793490D01*
X159245040Y-91541600D01*
X159245040Y-89306400D01*
X159200762Y-89071083D01*
X159061690Y-88854959D01*
X158849490Y-88709969D01*
X158597600Y-88658960D01*
X156362400Y-88658960D01*
X156127083Y-88703238D01*
X155910959Y-88842310D01*
X155765969Y-89054510D01*
X155714960Y-89306400D01*
X155714960Y-91201212D01*
X155666672Y-91249500D01*
X148983440Y-91249500D01*
X148983440Y-91084400D01*
X148939162Y-90849083D01*
X148800090Y-90632959D01*
X148587890Y-90487969D01*
X148336000Y-90436960D01*
X146304000Y-90436960D01*
X146068683Y-90481238D01*
X145852559Y-90620310D01*
X145707569Y-90832510D01*
X145656560Y-91084400D01*
X145656560Y-92811600D01*
X145700838Y-93046917D01*
X145839910Y-93263041D01*
X146052110Y-93408031D01*
X146093439Y-93416400D01*
X146075585Y-93428330D01*
X145750729Y-93914511D01*
X145636655Y-94488000D01*
X145750729Y-95061489D01*
X146075585Y-95547670D01*
X146390366Y-95758000D01*
X146075585Y-95968330D01*
X145750729Y-96454511D01*
X145636655Y-97028000D01*
X145750729Y-97601489D01*
X146075585Y-98087670D01*
X146561766Y-98412526D01*
X147135255Y-98526600D01*
X147504745Y-98526600D01*
X148078234Y-98412526D01*
X148564415Y-98087670D01*
X148805741Y-97726500D01*
X153233672Y-97726500D01*
X153929732Y-98422560D01*
X152940000Y-98422560D01*
X152704683Y-98466838D01*
X152488559Y-98605910D01*
X152343569Y-98818110D01*
X152307444Y-98996500D01*
X150749000Y-98996500D01*
X150481695Y-99049670D01*
X150255086Y-99201086D01*
X148983440Y-100472732D01*
X148983440Y-99720400D01*
X148939162Y-99485083D01*
X148800090Y-99268959D01*
X148587890Y-99123969D01*
X148336000Y-99072960D01*
X146304000Y-99072960D01*
X146068683Y-99117238D01*
X145852559Y-99256310D01*
X145707569Y-99468510D01*
X145656560Y-99720400D01*
X145656560Y-101447600D01*
X145700838Y-101682917D01*
X145839910Y-101899041D01*
X146052110Y-102044031D01*
X146093439Y-102052400D01*
X146075585Y-102064330D01*
X145934823Y-102274995D01*
X145478500Y-101818672D01*
X145478500Y-88808328D01*
X145556086Y-88885914D01*
X145782695Y-89037330D01*
X145801190Y-89041009D01*
X146075585Y-89451670D01*
X146561766Y-89776526D01*
X147135255Y-89890600D01*
X147504745Y-89890600D01*
X148078234Y-89776526D01*
X148564415Y-89451670D01*
X148889271Y-88965489D01*
X149003345Y-88392000D01*
X148889271Y-87818511D01*
X148564415Y-87332330D01*
X148249634Y-87122000D01*
X148564415Y-86911670D01*
X148889271Y-86425489D01*
X149003345Y-85852000D01*
X148889271Y-85278511D01*
X148564415Y-84792330D01*
X148550087Y-84782757D01*
X148571317Y-84778762D01*
X148787441Y-84639690D01*
X148932431Y-84427490D01*
X148983440Y-84175600D01*
X148983440Y-84010500D01*
X155859810Y-84010500D01*
X155796655Y-84328000D01*
X155922330Y-84959810D01*
X156149499Y-85299792D01*
X156012559Y-85387910D01*
X155867569Y-85600110D01*
X155816560Y-85852000D01*
X155816560Y-87884000D01*
X155860838Y-88119317D01*
X155999910Y-88335441D01*
X156212110Y-88480431D01*
X156464000Y-88531440D01*
X158496000Y-88531440D01*
X158731317Y-88487162D01*
X158947441Y-88348090D01*
X159092431Y-88135890D01*
X159143440Y-87884000D01*
X159143440Y-85852000D01*
X159099162Y-85616683D01*
X158960090Y-85400559D01*
X158811163Y-85298802D01*
X159037670Y-84959810D01*
X159163345Y-84328000D01*
X159037670Y-83696190D01*
X158679778Y-83160567D01*
X158144155Y-82802675D01*
X157512345Y-82677000D01*
X157447655Y-82677000D01*
X156907550Y-82784434D01*
X156731305Y-82666670D01*
X156464000Y-82613500D01*
X148983440Y-82613500D01*
X148983440Y-82448400D01*
X148939162Y-82213083D01*
X148800090Y-81996959D01*
X148587890Y-81851969D01*
X148336000Y-81800960D01*
X146304000Y-81800960D01*
X146068683Y-81845238D01*
X145852559Y-81984310D01*
X145707569Y-82196510D01*
X145656560Y-82448400D01*
X145656560Y-83454732D01*
X145527914Y-83326086D01*
X145301305Y-83174670D01*
X145034000Y-83121500D01*
X144487741Y-83121500D01*
X144246415Y-82760330D01*
X143931634Y-82550000D01*
X144246415Y-82339670D01*
X144571271Y-81853489D01*
X144685345Y-81280000D01*
X144571271Y-80706511D01*
X144368273Y-80402703D01*
X147363443Y-80402703D01*
X147462042Y-80669505D01*
X148071582Y-80895941D01*
X148721377Y-80871881D01*
X149209958Y-80669505D01*
X149308557Y-80402703D01*
X148336000Y-79430145D01*
X147363443Y-80402703D01*
X144368273Y-80402703D01*
X144246415Y-80220330D01*
X143931634Y-80010000D01*
X144246415Y-79799670D01*
X144571271Y-79313489D01*
X144636388Y-78986122D01*
X146690599Y-78986122D01*
X146714659Y-79635917D01*
X146917035Y-80124498D01*
X147183837Y-80223097D01*
X148156395Y-79250540D01*
X148515605Y-79250540D01*
X149488163Y-80223097D01*
X149754965Y-80124498D01*
X149981401Y-79514958D01*
X149957341Y-78865163D01*
X149754965Y-78376582D01*
X149488163Y-78277983D01*
X148515605Y-79250540D01*
X148156395Y-79250540D01*
X147183837Y-78277983D01*
X146917035Y-78376582D01*
X146690599Y-78986122D01*
X144636388Y-78986122D01*
X144685345Y-78740000D01*
X144571271Y-78166511D01*
X144525746Y-78098377D01*
X147363443Y-78098377D01*
X148336000Y-79070935D01*
X149308557Y-78098377D01*
X149209958Y-77831575D01*
X148600418Y-77605139D01*
X147950623Y-77629199D01*
X147462042Y-77831575D01*
X147363443Y-78098377D01*
X144525746Y-78098377D01*
X144246415Y-77680330D01*
X143931634Y-77470000D01*
X144246415Y-77259670D01*
X144571271Y-76773489D01*
X144685345Y-76200000D01*
X144571271Y-75626511D01*
X144246415Y-75140330D01*
X143760234Y-74815474D01*
X143186745Y-74701400D01*
X142817255Y-74701400D01*
X142243766Y-74815474D01*
X141757585Y-75140330D01*
X141478000Y-75558758D01*
X141478000Y-70345040D01*
X141833600Y-70345040D01*
X142068917Y-70300762D01*
X142285041Y-70161690D01*
X142430031Y-69949490D01*
X142481040Y-69697600D01*
X142481040Y-67462400D01*
X142436762Y-67227083D01*
X142297690Y-67010959D01*
X142085490Y-66865969D01*
X141833600Y-66814960D01*
X139598400Y-66814960D01*
X139363083Y-66859238D01*
X139146959Y-66998310D01*
X139001969Y-67210510D01*
X138950960Y-67462400D01*
X138950960Y-69697600D01*
X138995238Y-69932917D01*
X139134310Y-70149041D01*
X139346510Y-70294031D01*
X139598400Y-70345040D01*
X139954000Y-70345040D01*
X139954000Y-76454000D01*
X140012004Y-76745605D01*
X140030636Y-76773489D01*
X140177185Y-76992815D01*
X141419149Y-78234780D01*
X141318655Y-78740000D01*
X141432729Y-79313489D01*
X141757585Y-79799670D01*
X142072366Y-80010000D01*
X141757585Y-80220330D01*
X141432729Y-80706511D01*
X141318655Y-81280000D01*
X141432729Y-81853489D01*
X141757585Y-82339670D01*
X142072366Y-82550000D01*
X141757585Y-82760330D01*
X141432729Y-83246511D01*
X141318655Y-83820000D01*
X141432333Y-84391500D01*
X140970000Y-84391500D01*
X140702696Y-84444670D01*
X140621055Y-84499221D01*
X140655113Y-84328000D01*
X140545880Y-83778849D01*
X140234811Y-83313302D01*
X139852725Y-83058000D01*
X140234811Y-82802698D01*
X140545880Y-82337151D01*
X140655113Y-81788000D01*
X140545880Y-81238849D01*
X140234811Y-80773302D01*
X139890500Y-80543240D01*
X139890500Y-79788000D01*
X139837330Y-79520696D01*
X139837330Y-79520695D01*
X139685914Y-79294086D01*
X138775440Y-78383612D01*
X138775440Y-76874000D01*
X138731162Y-76638683D01*
X138592090Y-76422559D01*
X138379890Y-76277569D01*
X138128000Y-76226560D01*
X136128000Y-76226560D01*
X135892683Y-76270838D01*
X135676559Y-76409910D01*
X135531569Y-76622110D01*
X135480560Y-76874000D01*
X135480560Y-78574000D01*
X135524838Y-78809317D01*
X135663910Y-79025441D01*
X135876110Y-79170431D01*
X136128000Y-79221440D01*
X137637612Y-79221440D01*
X138493500Y-80077328D01*
X138493500Y-80543240D01*
X138149189Y-80773302D01*
X137838120Y-81238849D01*
X137728887Y-81788000D01*
X137838120Y-82337151D01*
X138149189Y-82802698D01*
X138531275Y-83058000D01*
X138149189Y-83313302D01*
X137838120Y-83778849D01*
X137728887Y-84328000D01*
X137838120Y-84877151D01*
X137853053Y-84899500D01*
X136398000Y-84899500D01*
X136130695Y-84952670D01*
X135904086Y-85104086D01*
X134838672Y-86169500D01*
X132826088Y-86169500D01*
X132614811Y-85853302D01*
X132210297Y-85583014D01*
X132427134Y-85480389D01*
X132803041Y-85065423D01*
X132963904Y-84677039D01*
X132841915Y-84455000D01*
X131699000Y-84455000D01*
X131699000Y-84475000D01*
X131445000Y-84475000D01*
X131445000Y-84455000D01*
X131425000Y-84455000D01*
X131425000Y-84201000D01*
X131445000Y-84201000D01*
X131445000Y-84181000D01*
X131699000Y-84181000D01*
X131699000Y-84201000D01*
X132841915Y-84201000D01*
X132963904Y-83978961D01*
X132803041Y-83590577D01*
X132427134Y-83175611D01*
X132210297Y-83072986D01*
X132614811Y-82802698D01*
X132925880Y-82337151D01*
X133035113Y-81788000D01*
X132925880Y-81238849D01*
X132614811Y-80773302D01*
X132334000Y-80585670D01*
X132334000Y-79595630D01*
X132708190Y-79221440D01*
X134128000Y-79221440D01*
X134363317Y-79177162D01*
X134579441Y-79038090D01*
X134724431Y-78825890D01*
X134775440Y-78574000D01*
X134775440Y-77154190D01*
X136428815Y-75500815D01*
X136486061Y-75415140D01*
X136593996Y-75253605D01*
X136652000Y-74962000D01*
X136652000Y-70345040D01*
X137007600Y-70345040D01*
X137242917Y-70300762D01*
X137459041Y-70161690D01*
X137604031Y-69949490D01*
X137655040Y-69697600D01*
X137655040Y-67462400D01*
X137610762Y-67227083D01*
X137471690Y-67010959D01*
X137259490Y-66865969D01*
X137007600Y-66814960D01*
X134772400Y-66814960D01*
X134537083Y-66859238D01*
X134320959Y-66998310D01*
X134175969Y-67210510D01*
X134124960Y-67462400D01*
X134124960Y-69697600D01*
X134169238Y-69932917D01*
X134308310Y-70149041D01*
X134520510Y-70294031D01*
X134772400Y-70345040D01*
X135128000Y-70345040D01*
X135128000Y-74646370D01*
X133547810Y-76226560D01*
X132128000Y-76226560D01*
X131892683Y-76270838D01*
X131676559Y-76409910D01*
X131531569Y-76622110D01*
X131480560Y-76874000D01*
X131480560Y-78293810D01*
X131033185Y-78741185D01*
X130868004Y-78988395D01*
X130810000Y-79280000D01*
X130810000Y-80585670D01*
X130529189Y-80773302D01*
X130340084Y-81056318D01*
X130200895Y-81084004D01*
X129953685Y-81249185D01*
X129382185Y-81820685D01*
X129217004Y-82067895D01*
X129159000Y-82359500D01*
X129159000Y-82988689D01*
X129006415Y-82760330D01*
X128691634Y-82550000D01*
X129006415Y-82339670D01*
X129331271Y-81853489D01*
X129445345Y-81280000D01*
X129331271Y-80706511D01*
X129006415Y-80220330D01*
X128691634Y-80010000D01*
X129006415Y-79799670D01*
X129331271Y-79313489D01*
X129445345Y-78740000D01*
X129331271Y-78166511D01*
X129006415Y-77680330D01*
X128691634Y-77470000D01*
X129006415Y-77259670D01*
X129331271Y-76773489D01*
X129445345Y-76200000D01*
X129331271Y-75626511D01*
X129006415Y-75140330D01*
X128520234Y-74815474D01*
X127946745Y-74701400D01*
X127577255Y-74701400D01*
X127003766Y-74815474D01*
X126517585Y-75140330D01*
X126192729Y-75626511D01*
X126078655Y-76200000D01*
X126192729Y-76773489D01*
X126517585Y-77259670D01*
X126832366Y-77470000D01*
X126517585Y-77680330D01*
X126192729Y-78166511D01*
X126078655Y-78740000D01*
X126192729Y-79313489D01*
X126517585Y-79799670D01*
X126832366Y-80010000D01*
X126517585Y-80220330D01*
X126192729Y-80706511D01*
X126078655Y-81280000D01*
X126192729Y-81853489D01*
X126517585Y-82339670D01*
X126832366Y-82550000D01*
X126517585Y-82760330D01*
X126192729Y-83246511D01*
X126078655Y-83820000D01*
X126192729Y-84393489D01*
X126517585Y-84879670D01*
X126832366Y-85090000D01*
X126517585Y-85300330D01*
X126192729Y-85786511D01*
X126078655Y-86360000D01*
X126192729Y-86933489D01*
X126517585Y-87419670D01*
X126832366Y-87630000D01*
X126517585Y-87840330D01*
X126192729Y-88326511D01*
X126078655Y-88900000D01*
X126192729Y-89473489D01*
X126517585Y-89959670D01*
X126832366Y-90170000D01*
X126517585Y-90380330D01*
X126192729Y-90866511D01*
X126078655Y-91440000D01*
X126192729Y-92013489D01*
X126517585Y-92499670D01*
X126832366Y-92710000D01*
X126517585Y-92920330D01*
X126192729Y-93406511D01*
X126078655Y-93980000D01*
X126192729Y-94553489D01*
X126517585Y-95039670D01*
X126832366Y-95250000D01*
X126517585Y-95460330D01*
X126192729Y-95946511D01*
X126078655Y-96520000D01*
X126192729Y-97093489D01*
X126517585Y-97579670D01*
X126832366Y-97790000D01*
X126517585Y-98000330D01*
X126192729Y-98486511D01*
X126078655Y-99060000D01*
X126192729Y-99633489D01*
X126517585Y-100119670D01*
X126832366Y-100330000D01*
X126517585Y-100540330D01*
X126192729Y-101026511D01*
X126142559Y-101278731D01*
X124699914Y-99836086D01*
X124473305Y-99684670D01*
X124206000Y-99631500D01*
X121409488Y-99631500D01*
X121620759Y-99122702D01*
X121621240Y-98571715D01*
X121410831Y-98062485D01*
X121021564Y-97672539D01*
X120512702Y-97461241D01*
X119961715Y-97460760D01*
X119452485Y-97671169D01*
X119062539Y-98060436D01*
X118851241Y-98569298D01*
X118850760Y-99120285D01*
X119061169Y-99629515D01*
X119063151Y-99631500D01*
X115409488Y-99631500D01*
X115620759Y-99122702D01*
X115621240Y-98571715D01*
X115410831Y-98062485D01*
X115021564Y-97672539D01*
X114512702Y-97461241D01*
X113961715Y-97460760D01*
X113452485Y-97671169D01*
X113062539Y-98060436D01*
X112851241Y-98569298D01*
X112850760Y-99120285D01*
X113061169Y-99629515D01*
X113063151Y-99631500D01*
X112522000Y-99631500D01*
X112254695Y-99684670D01*
X112141000Y-99760639D01*
X112141000Y-95281750D01*
X114501000Y-95281750D01*
X114501000Y-96272309D01*
X114597673Y-96505698D01*
X114776301Y-96684327D01*
X115009690Y-96781000D01*
X115850250Y-96781000D01*
X116009000Y-96622250D01*
X116009000Y-95123000D01*
X116263000Y-95123000D01*
X116263000Y-96622250D01*
X116421750Y-96781000D01*
X117262310Y-96781000D01*
X117495699Y-96684327D01*
X117674327Y-96505698D01*
X117771000Y-96272309D01*
X117771000Y-95281750D01*
X117612250Y-95123000D01*
X116263000Y-95123000D01*
X116009000Y-95123000D01*
X114659750Y-95123000D01*
X114501000Y-95281750D01*
X112141000Y-95281750D01*
X112141000Y-94169371D01*
X112619845Y-94489325D01*
X113251655Y-94615000D01*
X113316345Y-94615000D01*
X113948155Y-94489325D01*
X114483778Y-94131433D01*
X114501000Y-94105658D01*
X114501000Y-94710250D01*
X114659750Y-94869000D01*
X116009000Y-94869000D01*
X116009000Y-93369750D01*
X116263000Y-93369750D01*
X116263000Y-94869000D01*
X117612250Y-94869000D01*
X117771000Y-94710250D01*
X117771000Y-93846000D01*
X121010560Y-93846000D01*
X121010560Y-96146000D01*
X121054838Y-96381317D01*
X121193910Y-96597441D01*
X121406110Y-96742431D01*
X121658000Y-96793440D01*
X123658000Y-96793440D01*
X123893317Y-96749162D01*
X124109441Y-96610090D01*
X124254431Y-96397890D01*
X124305440Y-96146000D01*
X124305440Y-93846000D01*
X124261162Y-93610683D01*
X124122090Y-93394559D01*
X123909890Y-93249569D01*
X123658000Y-93198560D01*
X121658000Y-93198560D01*
X121422683Y-93242838D01*
X121206559Y-93381910D01*
X121061569Y-93594110D01*
X121010560Y-93846000D01*
X117771000Y-93846000D01*
X117771000Y-93719691D01*
X117674327Y-93486302D01*
X117495699Y-93307673D01*
X117262310Y-93211000D01*
X116421750Y-93211000D01*
X116263000Y-93369750D01*
X116009000Y-93369750D01*
X115850250Y-93211000D01*
X115009690Y-93211000D01*
X114910000Y-93252293D01*
X114967345Y-92964000D01*
X114841670Y-92332190D01*
X114614501Y-91992208D01*
X114751441Y-91904090D01*
X114896431Y-91691890D01*
X114947440Y-91440000D01*
X114947440Y-89408000D01*
X114903162Y-89172683D01*
X114764090Y-88956559D01*
X114551890Y-88811569D01*
X114300000Y-88760560D01*
X113378885Y-88760560D01*
X113948155Y-88647325D01*
X114483778Y-88289433D01*
X114841670Y-87753810D01*
X114967345Y-87122000D01*
X114841670Y-86490190D01*
X114614501Y-86150208D01*
X114751441Y-86062090D01*
X114896431Y-85849890D01*
X114947440Y-85598000D01*
X114947440Y-83566000D01*
X114903162Y-83330683D01*
X114764090Y-83114559D01*
X114551890Y-82969569D01*
X114300000Y-82918560D01*
X114046000Y-82918560D01*
X114046000Y-77023630D01*
X121727630Y-69342000D01*
X129044960Y-69342000D01*
X129044960Y-69697600D01*
X129089238Y-69932917D01*
X129228310Y-70149041D01*
X129440510Y-70294031D01*
X129692400Y-70345040D01*
X131927600Y-70345040D01*
X132162917Y-70300762D01*
X132379041Y-70161690D01*
X132524031Y-69949490D01*
X132575040Y-69697600D01*
X132575040Y-67462400D01*
X132530762Y-67227083D01*
X132391690Y-67010959D01*
X132179490Y-66865969D01*
X131927600Y-66814960D01*
X129692400Y-66814960D01*
X129457083Y-66859238D01*
X129240959Y-66998310D01*
X129095969Y-67210510D01*
X129044960Y-67462400D01*
X129044960Y-67818000D01*
X121412000Y-67818000D01*
X121120395Y-67876004D01*
X120873185Y-68041185D01*
X112745185Y-76169185D01*
X112580004Y-76416395D01*
X112522000Y-76708000D01*
X112522000Y-82918560D01*
X112268000Y-82918560D01*
X112141000Y-82942457D01*
X112141000Y-70104000D01*
X112712500Y-70104000D01*
X112765670Y-70371304D01*
X112917086Y-70597914D01*
X113143696Y-70749330D01*
X113411000Y-70802500D01*
X113792000Y-70802500D01*
X114059304Y-70749330D01*
X114285914Y-70597914D01*
X114437330Y-70371304D01*
X114490500Y-70104000D01*
X114437330Y-69836696D01*
X114285914Y-69610086D01*
X114059304Y-69458670D01*
X113792000Y-69405500D01*
X113411000Y-69405500D01*
X113143696Y-69458670D01*
X112917086Y-69610086D01*
X112765670Y-69836696D01*
X112712500Y-70104000D01*
X112141000Y-70104000D01*
X112141000Y-65455000D01*
X159519204Y-65455000D01*
X159647408Y-77634374D01*
X159647408Y-77634374D01*
G37*
X159647408Y-77634374D02*
X159495490Y-77603610D01*
X159015049Y-77603610D01*
X157972500Y-76561061D01*
X157972500Y-73665080D01*
X157928222Y-73429763D01*
X157789150Y-73213639D01*
X157576950Y-73068649D01*
X157325060Y-73017640D01*
X156460000Y-73017640D01*
X156460000Y-71813160D01*
X157325060Y-71813160D01*
X157560377Y-71768882D01*
X157776501Y-71629810D01*
X157921491Y-71417610D01*
X157972500Y-71165720D01*
X157972500Y-67665600D01*
X157928222Y-67430283D01*
X157789150Y-67214159D01*
X157576950Y-67069169D01*
X157325060Y-67018160D01*
X153824940Y-67018160D01*
X153589623Y-67062438D01*
X153373499Y-67201510D01*
X153228509Y-67413710D01*
X153177500Y-67665600D01*
X153177500Y-70349645D01*
X153090150Y-70213899D01*
X152877950Y-70068909D01*
X152626060Y-70017900D01*
X149125940Y-70017900D01*
X148890623Y-70062178D01*
X148674499Y-70201250D01*
X148529509Y-70413450D01*
X148478500Y-70665340D01*
X148478500Y-74165460D01*
X148522778Y-74400777D01*
X148661850Y-74616901D01*
X148874050Y-74761891D01*
X149125940Y-74812900D01*
X152626060Y-74812900D01*
X152861377Y-74768622D01*
X153077501Y-74629550D01*
X153177500Y-74483197D01*
X153177500Y-77165200D01*
X153221778Y-77400517D01*
X153360850Y-77616641D01*
X153573050Y-77761631D01*
X153824940Y-77812640D01*
X156720921Y-77812640D01*
X156903067Y-77994787D01*
X156900079Y-77999160D01*
X156849070Y-78251050D01*
X156849070Y-80250030D01*
X156893348Y-80485347D01*
X157032420Y-80701471D01*
X157244620Y-80846461D01*
X157496510Y-80897470D01*
X159495490Y-80897470D01*
X159681388Y-80862491D01*
X159890609Y-100738560D01*
X157600000Y-100738560D01*
X157396370Y-100776876D01*
X157536431Y-100571890D01*
X157587440Y-100320000D01*
X157587440Y-99070000D01*
X157543162Y-98834683D01*
X157404090Y-98618559D01*
X157191890Y-98473569D01*
X156940000Y-98422560D01*
X155905388Y-98422560D01*
X154016914Y-96534086D01*
X153790305Y-96382670D01*
X153523000Y-96329500D01*
X148805741Y-96329500D01*
X148564415Y-95968330D01*
X148249634Y-95758000D01*
X148564415Y-95547670D01*
X148889271Y-95061489D01*
X149003345Y-94488000D01*
X148959137Y-94265750D01*
X155727400Y-94265750D01*
X155727400Y-95223910D01*
X155824073Y-95457299D01*
X156002702Y-95635927D01*
X156236091Y-95732600D01*
X157194250Y-95732600D01*
X157353000Y-95573850D01*
X157353000Y-94107000D01*
X157607000Y-94107000D01*
X157607000Y-95573850D01*
X157765750Y-95732600D01*
X158723909Y-95732600D01*
X158957298Y-95635927D01*
X159135927Y-95457299D01*
X159232600Y-95223910D01*
X159232600Y-94265750D01*
X159073850Y-94107000D01*
X157607000Y-94107000D01*
X157353000Y-94107000D01*
X155886150Y-94107000D01*
X155727400Y-94265750D01*
X148959137Y-94265750D01*
X148889271Y-93914511D01*
X148564415Y-93428330D01*
X148550087Y-93418757D01*
X148571317Y-93414762D01*
X148787441Y-93275690D01*
X148932431Y-93063490D01*
X148983440Y-92811600D01*
X148983440Y-92646500D01*
X155764509Y-92646500D01*
X155727400Y-92736090D01*
X155727400Y-93694250D01*
X155886150Y-93853000D01*
X157353000Y-93853000D01*
X157353000Y-92386150D01*
X157607000Y-92386150D01*
X157607000Y-93853000D01*
X159073850Y-93853000D01*
X159232600Y-93694250D01*
X159232600Y-92736090D01*
X159135927Y-92502701D01*
X158957298Y-92324073D01*
X158723909Y-92227400D01*
X157765750Y-92227400D01*
X157607000Y-92386150D01*
X157353000Y-92386150D01*
X157194250Y-92227400D01*
X156664428Y-92227400D01*
X156702788Y-92189040D01*
X158597600Y-92189040D01*
X158832917Y-92144762D01*
X159049041Y-92005690D01*
X159194031Y-91793490D01*
X159245040Y-91541600D01*
X159245040Y-89306400D01*
X159200762Y-89071083D01*
X159061690Y-88854959D01*
X158849490Y-88709969D01*
X158597600Y-88658960D01*
X156362400Y-88658960D01*
X156127083Y-88703238D01*
X155910959Y-88842310D01*
X155765969Y-89054510D01*
X155714960Y-89306400D01*
X155714960Y-91201212D01*
X155666672Y-91249500D01*
X148983440Y-91249500D01*
X148983440Y-91084400D01*
X148939162Y-90849083D01*
X148800090Y-90632959D01*
X148587890Y-90487969D01*
X148336000Y-90436960D01*
X146304000Y-90436960D01*
X146068683Y-90481238D01*
X145852559Y-90620310D01*
X145707569Y-90832510D01*
X145656560Y-91084400D01*
X145656560Y-92811600D01*
X145700838Y-93046917D01*
X145839910Y-93263041D01*
X146052110Y-93408031D01*
X146093439Y-93416400D01*
X146075585Y-93428330D01*
X145750729Y-93914511D01*
X145636655Y-94488000D01*
X145750729Y-95061489D01*
X146075585Y-95547670D01*
X146390366Y-95758000D01*
X146075585Y-95968330D01*
X145750729Y-96454511D01*
X145636655Y-97028000D01*
X145750729Y-97601489D01*
X146075585Y-98087670D01*
X146561766Y-98412526D01*
X147135255Y-98526600D01*
X147504745Y-98526600D01*
X148078234Y-98412526D01*
X148564415Y-98087670D01*
X148805741Y-97726500D01*
X153233672Y-97726500D01*
X153929732Y-98422560D01*
X152940000Y-98422560D01*
X152704683Y-98466838D01*
X152488559Y-98605910D01*
X152343569Y-98818110D01*
X152307444Y-98996500D01*
X150749000Y-98996500D01*
X150481695Y-99049670D01*
X150255086Y-99201086D01*
X148983440Y-100472732D01*
X148983440Y-99720400D01*
X148939162Y-99485083D01*
X148800090Y-99268959D01*
X148587890Y-99123969D01*
X148336000Y-99072960D01*
X146304000Y-99072960D01*
X146068683Y-99117238D01*
X145852559Y-99256310D01*
X145707569Y-99468510D01*
X145656560Y-99720400D01*
X145656560Y-101447600D01*
X145700838Y-101682917D01*
X145839910Y-101899041D01*
X146052110Y-102044031D01*
X146093439Y-102052400D01*
X146075585Y-102064330D01*
X145934823Y-102274995D01*
X145478500Y-101818672D01*
X145478500Y-88808328D01*
X145556086Y-88885914D01*
X145782695Y-89037330D01*
X145801190Y-89041009D01*
X146075585Y-89451670D01*
X146561766Y-89776526D01*
X147135255Y-89890600D01*
X147504745Y-89890600D01*
X148078234Y-89776526D01*
X148564415Y-89451670D01*
X148889271Y-88965489D01*
X149003345Y-88392000D01*
X148889271Y-87818511D01*
X148564415Y-87332330D01*
X148249634Y-87122000D01*
X148564415Y-86911670D01*
X148889271Y-86425489D01*
X149003345Y-85852000D01*
X148889271Y-85278511D01*
X148564415Y-84792330D01*
X148550087Y-84782757D01*
X148571317Y-84778762D01*
X148787441Y-84639690D01*
X148932431Y-84427490D01*
X148983440Y-84175600D01*
X148983440Y-84010500D01*
X155859810Y-84010500D01*
X155796655Y-84328000D01*
X155922330Y-84959810D01*
X156149499Y-85299792D01*
X156012559Y-85387910D01*
X155867569Y-85600110D01*
X155816560Y-85852000D01*
X155816560Y-87884000D01*
X155860838Y-88119317D01*
X155999910Y-88335441D01*
X156212110Y-88480431D01*
X156464000Y-88531440D01*
X158496000Y-88531440D01*
X158731317Y-88487162D01*
X158947441Y-88348090D01*
X159092431Y-88135890D01*
X159143440Y-87884000D01*
X159143440Y-85852000D01*
X159099162Y-85616683D01*
X158960090Y-85400559D01*
X158811163Y-85298802D01*
X159037670Y-84959810D01*
X159163345Y-84328000D01*
X159037670Y-83696190D01*
X158679778Y-83160567D01*
X158144155Y-82802675D01*
X157512345Y-82677000D01*
X157447655Y-82677000D01*
X156907550Y-82784434D01*
X156731305Y-82666670D01*
X156464000Y-82613500D01*
X148983440Y-82613500D01*
X148983440Y-82448400D01*
X148939162Y-82213083D01*
X148800090Y-81996959D01*
X148587890Y-81851969D01*
X148336000Y-81800960D01*
X146304000Y-81800960D01*
X146068683Y-81845238D01*
X145852559Y-81984310D01*
X145707569Y-82196510D01*
X145656560Y-82448400D01*
X145656560Y-83454732D01*
X145527914Y-83326086D01*
X145301305Y-83174670D01*
X145034000Y-83121500D01*
X144487741Y-83121500D01*
X144246415Y-82760330D01*
X143931634Y-82550000D01*
X144246415Y-82339670D01*
X144571271Y-81853489D01*
X144685345Y-81280000D01*
X144571271Y-80706511D01*
X144368273Y-80402703D01*
X147363443Y-80402703D01*
X147462042Y-80669505D01*
X148071582Y-80895941D01*
X148721377Y-80871881D01*
X149209958Y-80669505D01*
X149308557Y-80402703D01*
X148336000Y-79430145D01*
X147363443Y-80402703D01*
X144368273Y-80402703D01*
X144246415Y-80220330D01*
X143931634Y-80010000D01*
X144246415Y-79799670D01*
X144571271Y-79313489D01*
X144636388Y-78986122D01*
X146690599Y-78986122D01*
X146714659Y-79635917D01*
X146917035Y-80124498D01*
X147183837Y-80223097D01*
X148156395Y-79250540D01*
X148515605Y-79250540D01*
X149488163Y-80223097D01*
X149754965Y-80124498D01*
X149981401Y-79514958D01*
X149957341Y-78865163D01*
X149754965Y-78376582D01*
X149488163Y-78277983D01*
X148515605Y-79250540D01*
X148156395Y-79250540D01*
X147183837Y-78277983D01*
X146917035Y-78376582D01*
X146690599Y-78986122D01*
X144636388Y-78986122D01*
X144685345Y-78740000D01*
X144571271Y-78166511D01*
X144525746Y-78098377D01*
X147363443Y-78098377D01*
X148336000Y-79070935D01*
X149308557Y-78098377D01*
X149209958Y-77831575D01*
X148600418Y-77605139D01*
X147950623Y-77629199D01*
X147462042Y-77831575D01*
X147363443Y-78098377D01*
X144525746Y-78098377D01*
X144246415Y-77680330D01*
X143931634Y-77470000D01*
X144246415Y-77259670D01*
X144571271Y-76773489D01*
X144685345Y-76200000D01*
X144571271Y-75626511D01*
X144246415Y-75140330D01*
X143760234Y-74815474D01*
X143186745Y-74701400D01*
X142817255Y-74701400D01*
X142243766Y-74815474D01*
X141757585Y-75140330D01*
X141478000Y-75558758D01*
X141478000Y-70345040D01*
X141833600Y-70345040D01*
X142068917Y-70300762D01*
X142285041Y-70161690D01*
X142430031Y-69949490D01*
X142481040Y-69697600D01*
X142481040Y-67462400D01*
X142436762Y-67227083D01*
X142297690Y-67010959D01*
X142085490Y-66865969D01*
X141833600Y-66814960D01*
X139598400Y-66814960D01*
X139363083Y-66859238D01*
X139146959Y-66998310D01*
X139001969Y-67210510D01*
X138950960Y-67462400D01*
X138950960Y-69697600D01*
X138995238Y-69932917D01*
X139134310Y-70149041D01*
X139346510Y-70294031D01*
X139598400Y-70345040D01*
X139954000Y-70345040D01*
X139954000Y-76454000D01*
X140012004Y-76745605D01*
X140030636Y-76773489D01*
X140177185Y-76992815D01*
X141419149Y-78234780D01*
X141318655Y-78740000D01*
X141432729Y-79313489D01*
X141757585Y-79799670D01*
X142072366Y-80010000D01*
X141757585Y-80220330D01*
X141432729Y-80706511D01*
X141318655Y-81280000D01*
X141432729Y-81853489D01*
X141757585Y-82339670D01*
X142072366Y-82550000D01*
X141757585Y-82760330D01*
X141432729Y-83246511D01*
X141318655Y-83820000D01*
X141432333Y-84391500D01*
X140970000Y-84391500D01*
X140702696Y-84444670D01*
X140621055Y-84499221D01*
X140655113Y-84328000D01*
X140545880Y-83778849D01*
X140234811Y-83313302D01*
X139852725Y-83058000D01*
X140234811Y-82802698D01*
X140545880Y-82337151D01*
X140655113Y-81788000D01*
X140545880Y-81238849D01*
X140234811Y-80773302D01*
X139890500Y-80543240D01*
X139890500Y-79788000D01*
X139837330Y-79520696D01*
X139837330Y-79520695D01*
X139685914Y-79294086D01*
X138775440Y-78383612D01*
X138775440Y-76874000D01*
X138731162Y-76638683D01*
X138592090Y-76422559D01*
X138379890Y-76277569D01*
X138128000Y-76226560D01*
X136128000Y-76226560D01*
X135892683Y-76270838D01*
X135676559Y-76409910D01*
X135531569Y-76622110D01*
X135480560Y-76874000D01*
X135480560Y-78574000D01*
X135524838Y-78809317D01*
X135663910Y-79025441D01*
X135876110Y-79170431D01*
X136128000Y-79221440D01*
X137637612Y-79221440D01*
X138493500Y-80077328D01*
X138493500Y-80543240D01*
X138149189Y-80773302D01*
X137838120Y-81238849D01*
X137728887Y-81788000D01*
X137838120Y-82337151D01*
X138149189Y-82802698D01*
X138531275Y-83058000D01*
X138149189Y-83313302D01*
X137838120Y-83778849D01*
X137728887Y-84328000D01*
X137838120Y-84877151D01*
X137853053Y-84899500D01*
X136398000Y-84899500D01*
X136130695Y-84952670D01*
X135904086Y-85104086D01*
X134838672Y-86169500D01*
X132826088Y-86169500D01*
X132614811Y-85853302D01*
X132210297Y-85583014D01*
X132427134Y-85480389D01*
X132803041Y-85065423D01*
X132963904Y-84677039D01*
X132841915Y-84455000D01*
X131699000Y-84455000D01*
X131699000Y-84475000D01*
X131445000Y-84475000D01*
X131445000Y-84455000D01*
X131425000Y-84455000D01*
X131425000Y-84201000D01*
X131445000Y-84201000D01*
X131445000Y-84181000D01*
X131699000Y-84181000D01*
X131699000Y-84201000D01*
X132841915Y-84201000D01*
X132963904Y-83978961D01*
X132803041Y-83590577D01*
X132427134Y-83175611D01*
X132210297Y-83072986D01*
X132614811Y-82802698D01*
X132925880Y-82337151D01*
X133035113Y-81788000D01*
X132925880Y-81238849D01*
X132614811Y-80773302D01*
X132334000Y-80585670D01*
X132334000Y-79595630D01*
X132708190Y-79221440D01*
X134128000Y-79221440D01*
X134363317Y-79177162D01*
X134579441Y-79038090D01*
X134724431Y-78825890D01*
X134775440Y-78574000D01*
X134775440Y-77154190D01*
X136428815Y-75500815D01*
X136486061Y-75415140D01*
X136593996Y-75253605D01*
X136652000Y-74962000D01*
X136652000Y-70345040D01*
X137007600Y-70345040D01*
X137242917Y-70300762D01*
X137459041Y-70161690D01*
X137604031Y-69949490D01*
X137655040Y-69697600D01*
X137655040Y-67462400D01*
X137610762Y-67227083D01*
X137471690Y-67010959D01*
X137259490Y-66865969D01*
X137007600Y-66814960D01*
X134772400Y-66814960D01*
X134537083Y-66859238D01*
X134320959Y-66998310D01*
X134175969Y-67210510D01*
X134124960Y-67462400D01*
X134124960Y-69697600D01*
X134169238Y-69932917D01*
X134308310Y-70149041D01*
X134520510Y-70294031D01*
X134772400Y-70345040D01*
X135128000Y-70345040D01*
X135128000Y-74646370D01*
X133547810Y-76226560D01*
X132128000Y-76226560D01*
X131892683Y-76270838D01*
X131676559Y-76409910D01*
X131531569Y-76622110D01*
X131480560Y-76874000D01*
X131480560Y-78293810D01*
X131033185Y-78741185D01*
X130868004Y-78988395D01*
X130810000Y-79280000D01*
X130810000Y-80585670D01*
X130529189Y-80773302D01*
X130340084Y-81056318D01*
X130200895Y-81084004D01*
X129953685Y-81249185D01*
X129382185Y-81820685D01*
X129217004Y-82067895D01*
X129159000Y-82359500D01*
X129159000Y-82988689D01*
X129006415Y-82760330D01*
X128691634Y-82550000D01*
X129006415Y-82339670D01*
X129331271Y-81853489D01*
X129445345Y-81280000D01*
X129331271Y-80706511D01*
X129006415Y-80220330D01*
X128691634Y-80010000D01*
X129006415Y-79799670D01*
X129331271Y-79313489D01*
X129445345Y-78740000D01*
X129331271Y-78166511D01*
X129006415Y-77680330D01*
X128691634Y-77470000D01*
X129006415Y-77259670D01*
X129331271Y-76773489D01*
X129445345Y-76200000D01*
X129331271Y-75626511D01*
X129006415Y-75140330D01*
X128520234Y-74815474D01*
X127946745Y-74701400D01*
X127577255Y-74701400D01*
X127003766Y-74815474D01*
X126517585Y-75140330D01*
X126192729Y-75626511D01*
X126078655Y-76200000D01*
X126192729Y-76773489D01*
X126517585Y-77259670D01*
X126832366Y-77470000D01*
X126517585Y-77680330D01*
X126192729Y-78166511D01*
X126078655Y-78740000D01*
X126192729Y-79313489D01*
X126517585Y-79799670D01*
X126832366Y-80010000D01*
X126517585Y-80220330D01*
X126192729Y-80706511D01*
X126078655Y-81280000D01*
X126192729Y-81853489D01*
X126517585Y-82339670D01*
X126832366Y-82550000D01*
X126517585Y-82760330D01*
X126192729Y-83246511D01*
X126078655Y-83820000D01*
X126192729Y-84393489D01*
X126517585Y-84879670D01*
X126832366Y-85090000D01*
X126517585Y-85300330D01*
X126192729Y-85786511D01*
X126078655Y-86360000D01*
X126192729Y-86933489D01*
X126517585Y-87419670D01*
X126832366Y-87630000D01*
X126517585Y-87840330D01*
X126192729Y-88326511D01*
X126078655Y-88900000D01*
X126192729Y-89473489D01*
X126517585Y-89959670D01*
X126832366Y-90170000D01*
X126517585Y-90380330D01*
X126192729Y-90866511D01*
X126078655Y-91440000D01*
X126192729Y-92013489D01*
X126517585Y-92499670D01*
X126832366Y-92710000D01*
X126517585Y-92920330D01*
X126192729Y-93406511D01*
X126078655Y-93980000D01*
X126192729Y-94553489D01*
X126517585Y-95039670D01*
X126832366Y-95250000D01*
X126517585Y-95460330D01*
X126192729Y-95946511D01*
X126078655Y-96520000D01*
X126192729Y-97093489D01*
X126517585Y-97579670D01*
X126832366Y-97790000D01*
X126517585Y-98000330D01*
X126192729Y-98486511D01*
X126078655Y-99060000D01*
X126192729Y-99633489D01*
X126517585Y-100119670D01*
X126832366Y-100330000D01*
X126517585Y-100540330D01*
X126192729Y-101026511D01*
X126142559Y-101278731D01*
X124699914Y-99836086D01*
X124473305Y-99684670D01*
X124206000Y-99631500D01*
X121409488Y-99631500D01*
X121620759Y-99122702D01*
X121621240Y-98571715D01*
X121410831Y-98062485D01*
X121021564Y-97672539D01*
X120512702Y-97461241D01*
X119961715Y-97460760D01*
X119452485Y-97671169D01*
X119062539Y-98060436D01*
X118851241Y-98569298D01*
X118850760Y-99120285D01*
X119061169Y-99629515D01*
X119063151Y-99631500D01*
X115409488Y-99631500D01*
X115620759Y-99122702D01*
X115621240Y-98571715D01*
X115410831Y-98062485D01*
X115021564Y-97672539D01*
X114512702Y-97461241D01*
X113961715Y-97460760D01*
X113452485Y-97671169D01*
X113062539Y-98060436D01*
X112851241Y-98569298D01*
X112850760Y-99120285D01*
X113061169Y-99629515D01*
X113063151Y-99631500D01*
X112522000Y-99631500D01*
X112254695Y-99684670D01*
X112141000Y-99760639D01*
X112141000Y-95281750D01*
X114501000Y-95281750D01*
X114501000Y-96272309D01*
X114597673Y-96505698D01*
X114776301Y-96684327D01*
X115009690Y-96781000D01*
X115850250Y-96781000D01*
X116009000Y-96622250D01*
X116009000Y-95123000D01*
X116263000Y-95123000D01*
X116263000Y-96622250D01*
X116421750Y-96781000D01*
X117262310Y-96781000D01*
X117495699Y-96684327D01*
X117674327Y-96505698D01*
X117771000Y-96272309D01*
X117771000Y-95281750D01*
X117612250Y-95123000D01*
X116263000Y-95123000D01*
X116009000Y-95123000D01*
X114659750Y-95123000D01*
X114501000Y-95281750D01*
X112141000Y-95281750D01*
X112141000Y-94169371D01*
X112619845Y-94489325D01*
X113251655Y-94615000D01*
X113316345Y-94615000D01*
X113948155Y-94489325D01*
X114483778Y-94131433D01*
X114501000Y-94105658D01*
X114501000Y-94710250D01*
X114659750Y-94869000D01*
X116009000Y-94869000D01*
X116009000Y-93369750D01*
X116263000Y-93369750D01*
X116263000Y-94869000D01*
X117612250Y-94869000D01*
X117771000Y-94710250D01*
X117771000Y-93846000D01*
X121010560Y-93846000D01*
X121010560Y-96146000D01*
X121054838Y-96381317D01*
X121193910Y-96597441D01*
X121406110Y-96742431D01*
X121658000Y-96793440D01*
X123658000Y-96793440D01*
X123893317Y-96749162D01*
X124109441Y-96610090D01*
X124254431Y-96397890D01*
X124305440Y-96146000D01*
X124305440Y-93846000D01*
X124261162Y-93610683D01*
X124122090Y-93394559D01*
X123909890Y-93249569D01*
X123658000Y-93198560D01*
X121658000Y-93198560D01*
X121422683Y-93242838D01*
X121206559Y-93381910D01*
X121061569Y-93594110D01*
X121010560Y-93846000D01*
X117771000Y-93846000D01*
X117771000Y-93719691D01*
X117674327Y-93486302D01*
X117495699Y-93307673D01*
X117262310Y-93211000D01*
X116421750Y-93211000D01*
X116263000Y-93369750D01*
X116009000Y-93369750D01*
X115850250Y-93211000D01*
X115009690Y-93211000D01*
X114910000Y-93252293D01*
X114967345Y-92964000D01*
X114841670Y-92332190D01*
X114614501Y-91992208D01*
X114751441Y-91904090D01*
X114896431Y-91691890D01*
X114947440Y-91440000D01*
X114947440Y-89408000D01*
X114903162Y-89172683D01*
X114764090Y-88956559D01*
X114551890Y-88811569D01*
X114300000Y-88760560D01*
X113378885Y-88760560D01*
X113948155Y-88647325D01*
X114483778Y-88289433D01*
X114841670Y-87753810D01*
X114967345Y-87122000D01*
X114841670Y-86490190D01*
X114614501Y-86150208D01*
X114751441Y-86062090D01*
X114896431Y-85849890D01*
X114947440Y-85598000D01*
X114947440Y-83566000D01*
X114903162Y-83330683D01*
X114764090Y-83114559D01*
X114551890Y-82969569D01*
X114300000Y-82918560D01*
X114046000Y-82918560D01*
X114046000Y-77023630D01*
X121727630Y-69342000D01*
X129044960Y-69342000D01*
X129044960Y-69697600D01*
X129089238Y-69932917D01*
X129228310Y-70149041D01*
X129440510Y-70294031D01*
X129692400Y-70345040D01*
X131927600Y-70345040D01*
X132162917Y-70300762D01*
X132379041Y-70161690D01*
X132524031Y-69949490D01*
X132575040Y-69697600D01*
X132575040Y-67462400D01*
X132530762Y-67227083D01*
X132391690Y-67010959D01*
X132179490Y-66865969D01*
X131927600Y-66814960D01*
X129692400Y-66814960D01*
X129457083Y-66859238D01*
X129240959Y-66998310D01*
X129095969Y-67210510D01*
X129044960Y-67462400D01*
X129044960Y-67818000D01*
X121412000Y-67818000D01*
X121120395Y-67876004D01*
X120873185Y-68041185D01*
X112745185Y-76169185D01*
X112580004Y-76416395D01*
X112522000Y-76708000D01*
X112522000Y-82918560D01*
X112268000Y-82918560D01*
X112141000Y-82942457D01*
X112141000Y-70104000D01*
X112712500Y-70104000D01*
X112765670Y-70371304D01*
X112917086Y-70597914D01*
X113143696Y-70749330D01*
X113411000Y-70802500D01*
X113792000Y-70802500D01*
X114059304Y-70749330D01*
X114285914Y-70597914D01*
X114437330Y-70371304D01*
X114490500Y-70104000D01*
X114437330Y-69836696D01*
X114285914Y-69610086D01*
X114059304Y-69458670D01*
X113792000Y-69405500D01*
X113411000Y-69405500D01*
X113143696Y-69458670D01*
X112917086Y-69610086D01*
X112765670Y-69836696D01*
X112712500Y-70104000D01*
X112141000Y-70104000D01*
X112141000Y-65455000D01*
X159519204Y-65455000D01*
X159647408Y-77634374D01*
M02*
