G04 #@! TF.FileFunction,Soldermask,Top*
%FSLAX46Y46*%
G04 Gerber Fmt 4.6, Leading zero omitted, Abs format (unit mm)*
G04 Created by KiCad (PCBNEW 4.0.4-stable) date 10/08/16 21:13:53*
%MOMM*%
%LPD*%
G01*
G04 APERTURE LIST*
%ADD10C,0.152400*%
%ADD11R,1.500000X1.250000*%
%ADD12C,1.998980*%
%ADD13R,1.998980X1.998980*%
%ADD14R,3.500120X3.500120*%
%ADD15R,2.032000X1.727200*%
%ADD16O,2.032000X1.727200*%
%ADD17R,2.032000X2.032000*%
%ADD18O,2.032000X2.032000*%
%ADD19R,2.235200X2.235200*%
%ADD20R,1.700000X2.000000*%
%ADD21R,2.000000X1.700000*%
%ADD22O,1.600000X1.600000*%
%ADD23R,2.000000X2.300000*%
%ADD24C,1.500000*%
%ADD25R,2.300000X2.000000*%
G04 APERTURE END LIST*
D10*
D11*
X156190000Y-99695000D03*
X153690000Y-99695000D03*
X136124000Y-93218000D03*
X133624000Y-93218000D03*
X136124000Y-95504000D03*
X133624000Y-95504000D03*
D12*
X148336000Y-79250540D03*
D13*
X158496000Y-79250540D03*
D14*
X155575000Y-75415140D03*
X155575000Y-69415660D03*
X150876000Y-72415400D03*
D15*
X147320000Y-91948000D03*
D16*
X147320000Y-94488000D03*
X147320000Y-97028000D03*
D15*
X147320000Y-100584000D03*
D16*
X147320000Y-103124000D03*
X147320000Y-105664000D03*
D15*
X147320000Y-83312000D03*
D16*
X147320000Y-85852000D03*
X147320000Y-88392000D03*
D17*
X113284000Y-84582000D03*
D18*
X113284000Y-87122000D03*
D17*
X113284000Y-90424000D03*
D18*
X113284000Y-92964000D03*
D19*
X157480000Y-90424000D03*
D17*
X157480000Y-86868000D03*
D18*
X157480000Y-84328000D03*
D20*
X120904000Y-107982000D03*
X120904000Y-111982000D03*
X117348000Y-107982000D03*
X117348000Y-111982000D03*
X114300000Y-107982000D03*
X114300000Y-111982000D03*
X123952000Y-107982000D03*
X123952000Y-111982000D03*
D21*
X137128000Y-99314000D03*
X133128000Y-99314000D03*
X137128000Y-77724000D03*
X133128000Y-77724000D03*
D19*
X130810000Y-68580000D03*
X135890000Y-68580000D03*
X140716000Y-68580000D03*
X157480000Y-93980000D03*
D22*
X131572000Y-103632000D03*
X131572000Y-106172000D03*
X131572000Y-108712000D03*
X131572000Y-111252000D03*
X139192000Y-111252000D03*
X139192000Y-108712000D03*
X139192000Y-106172000D03*
X139192000Y-103632000D03*
X131572000Y-81788000D03*
X131572000Y-84328000D03*
X131572000Y-86868000D03*
X131572000Y-89408000D03*
X139192000Y-89408000D03*
X139192000Y-86868000D03*
X139192000Y-84328000D03*
X139192000Y-81788000D03*
D15*
X127762000Y-111760000D03*
D16*
X127762000Y-109220000D03*
X127762000Y-106680000D03*
X127762000Y-104140000D03*
X127762000Y-101600000D03*
X127762000Y-99060000D03*
X127762000Y-96520000D03*
X127762000Y-93980000D03*
X127762000Y-91440000D03*
X127762000Y-88900000D03*
X127762000Y-86360000D03*
X127762000Y-83820000D03*
X127762000Y-81280000D03*
X127762000Y-78740000D03*
X127762000Y-76200000D03*
D15*
X143002000Y-111760000D03*
D16*
X143002000Y-109220000D03*
X143002000Y-106680000D03*
X143002000Y-104140000D03*
X143002000Y-101600000D03*
X143002000Y-99060000D03*
X143002000Y-96520000D03*
X143002000Y-93980000D03*
X143002000Y-91440000D03*
X143002000Y-88900000D03*
X143002000Y-86360000D03*
X143002000Y-83820000D03*
X143002000Y-81280000D03*
X143002000Y-78740000D03*
X143002000Y-76200000D03*
D23*
X122658000Y-94996000D03*
X113436000Y-102616000D03*
X122658000Y-102616000D03*
X116136000Y-94996000D03*
D24*
X114236000Y-98846000D03*
X120236000Y-98846000D03*
D25*
X151130000Y-102386000D03*
X158750000Y-111608000D03*
X158750000Y-102386000D03*
X151130000Y-108908000D03*
D24*
X154980000Y-110808000D03*
X154980000Y-104808000D03*
M02*
